<?xml version="1.0" encoding="utf-8"?>
<!-- Generator: Adobe Illustrator 16.0.0, SVG Export Plug-In . SVG Version: 6.00 Build 0)  -->
<!DOCTYPE svg PUBLIC "-//W3C//DTD SVG 1.1//EN" "http://www.w3.org/Graphics/SVG/1.1/DTD/svg11.dtd">
<svg version="1.1" id="Layer_1" xmlns="http://www.w3.org/2000/svg" xmlns:xlink="http://www.w3.org/1999/xlink" x="0px" y="0px"
	 width="200px" height="200px" viewBox="0 0 200 200" enable-background="new 0 0 200 200" xml:space="preserve">
<g>
	<path fill-rule="evenodd" clip-rule="evenodd" fill="#1A2D57" d="M150.716,129.765c0.336,1.092,1.161,1.701,1.934,2.342
		c1.36,1.129,2.424,2.439,2.866,4.2c0.655,2.607-0.412,4.845-2.118,6.158c-1.283,0.988-2.793,1.45-4.343,1.802
		c-0.385,0.087-0.775,0.146-1.166,0.204c-0.555,0.083-1.074-0.049-1.565-0.298c-1.103-0.558-1.31-1.396-0.552-2.351
		c0.313-0.395,0.699-0.729,1.041-1.103c0.463-0.505,0.946-0.996,1.365-1.536c0.871-1.125,0.855-1.137,0.427-2.77
		c-0.205,0.186-0.395,0.316-0.534,0.488c-0.521,0.643-1.007,1.315-1.544,1.945c-0.59,0.69-1.366,1.022-2.273,1.094
		c-0.786,0.062-1.568,0.175-2.484,0.279c-0.01,0.766-0.033,1.543-0.026,2.32c0.013,1.408,0.044,2.816,0.066,4.225
		c0.001,0.108,0.008,0.218-0.005,0.325c-0.154,1.311-1.122,1.897-2.312,1.304c-0.559-0.278-1.044-0.748-1.486-1.205
		c-0.546-0.565-1.013-1.207-1.534-1.841c-2.675,3.182-5.09,6.465-6.14,10.55c-0.509,1.979-1.057,3.946-1.578,5.922
		c-0.206,0.777-0.729,1.436-1.612,1.962c-1.837-0.73-1.937-2.392-2.103-4.143c-0.542,0.44-1.047,0.789-1.479,1.212
		c-1.24,1.211-2.649,1.963-4.439,1.852c-0.734-0.046-1.314,0.313-1.812,0.818c-1.683,1.711-2.778,3.743-3.263,6.092
		c-0.283,1.375-0.389,2.771-0.471,4.177c-0.15,2.586-1.137,3.864-3.559,4.709c-0.271,0.094-0.554,0.154-0.827,0.241
		c-0.772,0.246-1.188,0.8-1.186,1.584c0,0.143,0.025,0.287,0.052,0.428c0.297,1.608-0.573,2.751-1.548,3.844
		c-0.238,0.269-0.588,0.341-0.892,0.157c-0.642-0.387-1.331-0.74-1.862-1.252c-0.986-0.949-1.865-2.008-2.804-3.008
		c-0.32-0.342-0.66-0.674-1.031-0.956c-0.613-0.466-0.946-0.493-1.552-0.002c-0.612,0.497-1.157,1.08-1.706,1.65
		c-0.751,0.78-1.458,1.604-2.226,2.369c-0.352,0.35-0.774,0.653-1.213,0.889c-1.123,0.601-2.236,0.231-2.769-0.916
		c-0.162-0.348-0.256-0.761-0.255-1.144c0.002-0.754,0.094-1.507,0.145-2.261c0.024-0.356,0.039-0.714,0.061-1.139
		c-0.721-0.151-1.418-0.269-2.099-0.446c-2.164-0.562-3.353-1.964-3.564-4.199c-0.068-0.716-0.156-1.44-0.112-2.154
		c0.123-2.021-0.463-3.835-1.513-5.521c-0.666-1.069-1.37-2.114-2.06-3.168c-0.366-0.561-0.886-0.832-1.556-0.788
		c-2.024,0.133-3.613-0.733-4.999-2.121c-0.449-0.45-0.981-0.817-1.576-1.306c-0.122,0.712-0.228,1.265-0.309,1.82
		c-0.137,0.928-0.526,1.719-1.25,2.323c-0.766,0.641-1.634,0.474-2.019-0.45c-0.287-0.689-0.453-1.432-0.638-2.16
		c-0.45-1.772-0.851-3.559-1.326-5.324c-0.625-2.319-1.747-4.396-3.205-6.299c-0.592-0.772-1.183-1.547-1.738-2.346
		c-0.923-1.327-1.721-0.998-2.437,0.037c-0.327,0.474-0.662,0.952-1.063,1.359c-0.653,0.663-1.383,0.751-2.171,0.349
		c-0.558-0.285-0.907-0.714-0.88-1.368c0.054-1.295,0.139-2.59,0.177-3.885c0.029-1.008,0.006-2.018,0.006-3.115
		c-0.676-0.083-1.447-0.226-2.223-0.262c-1.369-0.065-2.39-0.697-3.181-1.774c-0.362-0.493-0.734-0.979-1.103-1.471
		c-0.493,0.157-0.703,0.574-0.733,0.974c-0.027,0.361,0.104,0.804,0.318,1.1c0.399,0.55,0.883,1.046,1.379,1.514
		c0.663,0.625,1.256,1.299,1.649,2.12c0.407,0.853,0.222,1.282-0.595,1.774c-0.781,0.471-1.628,0.364-2.431,0.251
		c-1.727-0.243-3.311-0.875-4.741-1.924c-1.248-0.915-1.939-2.138-2.131-3.61c-0.272-2.091,0.133-4.023,1.718-5.565
		c0.595-0.579,1.195-1.153,1.781-1.741c0.504-0.507,0.993-1.03,1.506-1.565c-0.357-0.68-0.859-0.944-1.516-0.954
		c-0.614-0.008-1.23-0.029-1.843,0.003c-2.445,0.13-5.021-1.699-5.795-4.602c-0.216-0.811-0.288-1.627-0.125-2.461
		c0.304-1.549,1.143-2.642,2.558-3.395c1.758-0.936,1.618-0.687,1.429-2.787c-0.229-2.543-0.546-5.08-0.852-7.616
		c-0.104-0.867-0.438-1.549-1.444-1.762c-0.952-0.201-1.666-0.826-2.195-1.644c-1.583-2.438-2.099-5.091-1.53-7.938
		c0.088-0.44,0.333-0.875,0.597-1.25c0.644-0.917,1.335-1.803,2.358-2.342c0.398-0.209,0.577-0.512,0.521-0.967
		c-0.073-0.604-0.123-1.21-0.183-1.816c-0.06-0.609-0.388-1.07-0.81-1.485c-1.276-1.253-1.893-2.792-1.855-4.565
		c0.028-1.331,0.104-2.666,0.253-3.988c0.308-2.724,0.958-5.362,2.064-7.888c1.227-2.8,2.854-5.337,4.966-7.535
		c1.078-1.122,1.578-2.375,1.472-3.901c-0.013-0.18,0.003-0.362-0.003-0.542c-0.031-0.866-0.058-1.732-0.1-2.598
		c-0.017-0.351-0.032-0.35-0.535-0.693c-0.585,0.524-1.164,1.066-1.77,1.576c-0.384,0.324-0.79,0.632-1.219,0.892
		c-0.753,0.457-0.98,0.398-1.625-0.163c-0.866-0.753-0.99-1.747-0.863-2.772c0.189-1.525,0.869-2.791,2.166-3.701
		c1.488-1.044,3.182-1.479,4.937-1.697c2.593-0.324,5.166-0.009,7.735,0.34c0.569,0.078,1.156,0.097,1.729,0.058
		c0.85-0.059,1.514-0.509,1.893-1.26c0.417-0.826,1.053-1.447,1.662-2.112c0.603-0.66,1.134-1.387,1.687-2.092
		c0.154-0.197,0.28-0.419,0.4-0.641c0.771-1.422,1.972-2.221,3.546-2.549c1.156-0.241,2.293-0.573,3.436-0.878
		c0.235-0.063,0.455-0.185,0.821-0.339c-0.318-0.138-0.496-0.265-0.686-0.289c-1.32-0.166-2.644-0.306-3.965-0.467
		c-0.247-0.03-0.49-0.108-0.729-0.183c-0.672-0.21-1.328-0.517-1.549-1.22c-0.174-0.553,0.739-1.833,1.396-2.139
		c1.321-0.613,2.726-0.94,4.167-0.966c2.817-0.051,5.641-0.103,8.455,0.009c3.053,0.121,6.086,0.525,9.079,1.183
		c0.351,0.077,0.701,0.179,1.056,0.203c0.221,0.015,0.45-0.095,0.736-0.165c-0.961-1.215-2.084-1.976-3.484-2.34
		c-1.318-0.343-2.64-0.681-3.936-1.096c-0.604-0.194-1.207-0.493-1.712-0.873c-0.959-0.722-0.914-1.723,0.084-2.398
		c0.407-0.275,0.892-0.477,1.371-0.599c2.812-0.713,5.632-0.742,8.427,0.083c1.339,0.395,2.656,0.865,3.977,1.32
		c1.151,0.397,1.569,0.274,2.224-0.793c0.921-1.501,1.807-3.025,2.732-4.523c0.358-0.58,0.767-1.131,1.189-1.667
		c0.173-0.219,0.424-0.39,0.669-0.536c0.582-0.346,1.016-0.305,1.43,0.216c0.332,0.417,0.612,0.891,0.833,1.376
		c0.684,1.502,1.314,3.027,1.993,4.531c0.22,0.487,0.489,0.961,0.798,1.397c0.407,0.575,0.973,0.855,1.689,0.609
		c1.252-0.429,2.502-0.864,3.749-1.309c1.418-0.506,2.825-1.012,4.338-1.229c1.279-0.183,2.511,0.047,3.76,0.14
		c0.461,0.035,0.908,0.219,1.368,0.279c0.43,0.056,0.724,0.286,0.995,0.587c0.928,1.026,0.877,1.859-0.304,2.573
		c-0.853,0.515-1.804,0.873-2.73,1.252c-1.127,0.461-2.283,0.852-3.411,1.313c-0.478,0.196-0.914,0.494-1.423,0.775
		c0.421,0.454,0.835,0.274,1.2,0.249c1.543-0.107,3.083-0.336,4.626-0.347c4.517-0.033,9.034,0.011,13.552,0.04
		c0.898,0.005,1.796,0.09,2.694,0.108c0.473,0.01,0.837,0.175,1.105,0.56c0.104,0.148,0.208,0.295,0.32,0.436
		c0.968,1.209,0.512,1.929-0.778,2.473c-0.91,0.384-1.945,0.474-2.929,0.682c-0.559,0.118-1.12,0.215-1.581,0.773
		c1.344,0.335,2.611,0.651,3.879,0.97c0.313,0.079,0.628,0.151,0.934,0.253c0.734,0.244,1.229,0.728,1.438,1.485
		c0.086,0.312,0.23,0.618,0.253,0.934c0.061,0.823,0.543,1.292,1.223,1.645c1.002,0.519,1.933,1.146,2.553,2.111
		c0.346,0.537,0.604,1.133,0.866,1.719c0.325,0.731,0.534,0.883,1.33,0.761c0.496-0.077,0.983-0.21,1.473-0.324
		c3.319-0.769,6.633-0.835,9.933,0.101c1.964,0.557,3.671,1.518,4.747,3.321c0.383,0.64,0.622,1.37,0.878,2.077
		c0.094,0.26,0.092,0.578,0.054,0.859c-0.254,1.878-1.032,2.462-2.767,1.75c-0.885-0.363-1.672-0.969-2.494-1.479
		c-0.365-0.227-0.709-0.489-1.114-0.772c-0.585,0.681-0.683,1.51-0.776,2.294c-0.251,2.114,0.339,3.966,1.821,5.548
		c3.352,3.578,5.438,7.805,6.439,12.603c0.513,2.453,0.663,4.919,0.648,7.411c-0.008,1.229-0.418,2.269-1.331,3.072
		c-1.125,0.989-1.412,2.293-1.491,3.687c-0.041,0.704,0.228,1.201,0.896,1.57c0.684,0.377,1.361,0.847,1.881,1.422
		c0.97,1.075,1.253,2.432,1.037,3.838c-0.271,1.774-0.749,3.504-1.474,5.155c-0.471,1.074-1.225,1.905-2.351,2.233
		c-1.157,0.339-1.604,1.138-1.733,2.206c-0.247,2.036-0.459,4.077-0.689,6.115c-0.073,0.645-0.15,1.288-0.244,1.929
		c-0.107,0.733,0.178,1.26,0.802,1.629c0.31,0.183,0.621,0.362,0.921,0.561c1.27,0.844,2.311,1.878,2.504,3.474
		c0.076,0.626,0.067,1.303-0.086,1.91c-0.601,2.369-1.862,4.241-4.367,4.859c-0.958,0.236-2.005,0.147-3.011,0.142
		C151.912,129.069,151.286,129.227,150.716,129.765z M126.813,51.86c-0.115,0.579-0.21,1.03-0.294,1.483
		c-0.371,1.999,0.111,3.846,2.542,4.728c2.293,0.832,4.708,1.196,7.122,0.87c2.126-0.288,4.219-0.847,6.31-1.354
		c2.438-0.591,4.845-1.315,7.291-1.869c1.99-0.451,3.93-0.203,5.727,0.871c0.521,0.311,1.111,0.503,1.653,0.781
		c0.428,0.219,0.565,0.005,0.67-0.334c-0.248-0.31-0.485-0.583-0.696-0.875c-1.67-2.318-4.033-3.272-6.787-3.423
		c-1.737-0.095-3.45,0.167-5.166,0.409c-2.493,0.352-4.994,0.649-7.49,0.983c-1.009,0.135-2.013,0.197-3-0.098
		c-0.995-0.298-1.993-0.595-2.967-0.956c-0.623-0.23-0.976-0.937-0.845-1.47c0.109-0.439,0.626-0.843,1.261-0.839
		c1.189,0.008,2.38,0.058,3.566,0.145c1.059,0.077,2.111,0.228,3.263,0.356c-0.845-1.603-2.055-2.53-3.646-2.866
		c-1.226-0.259-2.486-0.362-3.733-0.51c-1.978-0.235-3.959-0.159-5.94-0.033c-0.475,0.03-0.992,0.196-1.486-0.243
		c0.297-0.112,0.522-0.225,0.762-0.284c1.811-0.45,3.625-0.884,5.435-1.334c1.044-0.26,2.085-0.534,3.12-0.826
		c0.127-0.036,0.298-0.23,0.29-0.341c-0.007-0.117-0.191-0.301-0.318-0.319c-1.637-0.238-3.277-0.452-4.917-0.673
		s-3.282-0.431-4.918-0.679c-0.188-0.028-0.341-0.273-0.526-0.431c0.68-0.779,1.403-1.255,2.295-1.539
		c2.325-0.739,4.646-1.484,7.051-1.936c0.2-0.038,0.373-0.224,0.787-0.486c-0.545-0.157-0.831-0.291-1.127-0.316
		c-1.184-0.103-2.37-0.213-3.557-0.245c-3.248-0.088-6.491-0.008-9.722,0.392c-2.999,0.372-6,0.726-9.001,1.078
		c-0.304,0.035-0.614,0.004-0.898,0.004c-0.367-1.853-0.053-2.929,1.904-3.971c0.633-0.337,1.269-0.673,1.922-0.969
		c1.598-0.726,3.209-1.423,4.808-2.146c0.174-0.079,0.402-0.243,0.431-0.398c0.061-0.339-0.292-0.393-0.511-0.427
		c-0.949-0.148-1.902-0.408-2.864-0.034c-0.333,0.129-0.682,0.217-1.023,0.326c-2.798,0.892-5.604,1.762-8.392,2.687
		c-1.225,0.407-1.889-0.01-2.373-0.992c-0.858-1.736-1.737-3.462-2.641-5.174c-0.275-0.522-0.66-0.987-1.09-1.616
		c-0.511,0.629-0.974,1.086-1.301,1.626c-0.895,1.475-1.719,2.993-2.598,4.478c-0.713,1.205-1.29,1.731-3.16,1.044
		c-0.101-0.037-0.208-0.058-0.31-0.091c-2.324-0.732-4.63-1.527-6.977-2.177c-1.555-0.43-3.115-0.286-4.69,0.691
		c0.525,0.181,0.914,0.338,1.317,0.449c1.106,0.304,2.239,0.528,3.324,0.894c1.753,0.592,3.167,1.677,4.242,3.195
		c0.543,0.768,0.82,1.575,0.486,2.552c-1.215,0.22-2.418,0.223-3.577,0.011c-3.476-0.634-6.983-0.989-10.501-1.168
		c-2.523-0.129-5.059-0.06-7.587-0.007c-0.993,0.021-2.018,0.096-3.053,0.796c0.702,0.174,1.267,0.396,1.847,0.444
		c2.163,0.18,4.258,0.641,6.31,1.339c0.912,0.311,1.574,0.816,1.713,1.878c-0.422,0.37-0.883,0.644-1.497,0.724
		c-1.924,0.252-3.846,0.531-5.759,0.859c-0.707,0.121-1.474,0.124-2.287,0.688c1.017,0.306,1.854,0.566,2.696,0.808
		c1.55,0.445,3.102,0.881,4.655,1.315c0.269,0.075,0.524,0.185,0.38,0.498c-0.063,0.138-0.334,0.261-0.504,0.254
		c-0.682-0.029-1.362-0.118-2.043-0.173c-1.542-0.125-3.092-0.193-4.627-0.378c-2.21-0.267-5.591,2.036-6.314,4.35
		c0.942-0.183,1.842-0.394,2.753-0.526c1.03-0.149,2.071-0.32,3.105-0.313c1.165,0.008,1.737,1.066,1.152,2.055
		c-0.556,0.939-1.339,1.552-2.545,1.435c-1.973-0.192-3.949-0.345-5.925-0.499c-1.327-0.104-2.656-0.205-3.986-0.266
		c-2.806-0.127-5.613-0.263-8.421-0.324c-1.631-0.035-2.892,0.767-3.824,2.076c-0.281,0.395-0.573,0.821-0.364,1.456
		c0.366-0.091,0.706-0.164,1.039-0.261c0.688-0.201,1.36-0.473,2.06-0.612c1.018-0.202,2.063-0.474,3.08-0.417
		c1.165,0.065,2.327,0.402,3.464,0.717c2.969,0.824,5.877,1.871,8.958,2.274c2.271,0.297,4.537,0.375,6.777-0.104
		c1.949-0.417,3.43-1.488,3.981-3.52c0.168-0.619,0.234-1.272,0.29-1.914c0.047-0.531,0.01-1.07,0.01-1.719
		c0.396,0.161,0.657,0.254,0.907,0.372c0.584,0.274,1.155,0.579,1.745,0.839c2.824,1.245,5.471,0.939,7.888-0.988
		c1.359-1.084,1.73-2.512,1.219-4.161c-0.244-0.787-0.53-1.562-0.805-2.339c-0.218-0.616-0.448-1.227-0.701-1.918
		c2.934,0.244,5.664,0.804,8.325,1.72c2.633,0.906,5.127,2.125,7.653,3.476c0.085-0.747,0.179-1.386,0.228-2.029
		c0.09-1.185,0.088-2.38,0.245-3.555c0.18-1.352,0.549-2.662,1.481-3.746c0.75,0.379,0.991,1.016,1.095,1.758
		c0.218,1.567,0.405,3.141,0.715,4.69c0.149,0.743,0.025,1.568,0.513,2.261c4.886-2.513,10.007-4.074,15.605-4.61
		c-0.442,0.71-0.794,1.25-1.122,1.804c-0.835,1.413-1.057,2.928-0.459,4.458c1.12,2.869,3.245,4.697,6.875,3.735
		C123.769,52.778,125.234,52.319,126.813,51.86z M108.681,123.04c1.757,0.064,3.262-0.564,4.533-1.715
		c1.067-0.966,2.109-1.969,3.079-3.031c2.84-3.115,4.793-6.714,5.673-10.855c0.553-2.604,0.261-5.112-1.28-7.322
		c-0.797-1.143-1.815-2.139-2.786-3.15c-0.875-0.911-1.87-1.707-2.728-2.632c-2.542-2.746-2.186-6.825,1.531-8.797
		c0.505-0.269,1.043-0.477,1.569-0.706c1.926-0.841,3.696-1.941,5.283-3.311c1.923-1.66,2.559-3.705,1.833-6.2
		c-0.854-2.94-2.278-5.573-4.073-8.021c-0.639-0.871-1.322-1.717-2.057-2.507c-0.946-1.016-2.026-1.11-3.212-0.38
		c-0.183,0.113-0.357,0.244-0.523,0.38c-3.463,2.834-6.928,5.666-10.383,8.509c-1.075,0.884-1.275,1.647-0.848,2.97
		c0.219,0.673,0.492,0.849,1.199,0.824c0.957-0.033,1.702-0.567,2.438-1.068c2.922-1.986,6.126-3.457,9.235-5.1
		c0.629-0.332,0.954-0.206,1.066,0.478c0.104,0.631,0.134,1.294,0.064,1.929c-0.264,2.4-1.173,4.573-2.479,6.585
		c-1.004,1.545-2.183,2.016-3.988,1.516c-2.141-0.593-4.262-1.257-6.395-1.879c-0.343-0.1-0.699-0.19-1.053-0.203
		c-0.564-0.021-0.78,0.235-0.715,0.815c0.041,0.354,0.131,0.707,0.229,1.051c1.41,5.002,2.82,10.005,4.242,15.003
		c0.318,1.116,0.331,2.204-0.181,3.26c-0.187,0.386-0.419,0.753-0.656,1.111c-1.813,2.728-3.62,5.459-5.457,8.17
		c-0.824,1.218-1.388,2.532-1.45,3.996c-0.111,2.607,0.641,5.001,2.212,7.065C104.111,121.806,106.119,122.988,108.681,123.04z
		 M79.577,70.552c0.903,0.369,1.665,0.593,2.341,0.971c2.792,1.561,5.556,3.173,8.336,4.756c0.622,0.354,1.246,0.719,1.906,0.989
		c1.041,0.427,1.977-0.239,1.938-1.37c-0.036-1.019-0.501-1.882-1.27-2.524c-3.183-2.66-6.384-5.298-9.59-7.93
		c-0.527-0.433-1.079-0.857-1.677-1.177c-0.97-0.519-1.974-0.343-2.786,0.42c-0.339,0.319-0.664,0.671-0.921,1.057
		c-0.857,1.286-1.72,2.571-2.507,3.9c-0.859,1.45-1.716,2.912-2.43,4.436c-0.803,1.714-0.995,3.516-0.155,5.312
		c0.615,1.314,1.623,2.282,2.772,3.119c1.608,1.172,3.438,1.929,5.228,2.762c0.682,0.317,1.356,0.66,2,1.047
		c0.901,0.542,1.345,1.374,1.348,2.428c0.002,0.723,0.007,1.446-0.017,2.168c-0.054,1.602-0.49,3.005-1.794,4.104
		c-1.323,1.115-2.556,2.34-3.792,3.554c-2.286,2.247-2.998,5.043-2.58,8.125c0.335,2.472,1.19,4.799,2.409,6.983
		c1.455,2.607,3.39,4.825,5.485,6.929c1.235,1.24,2.626,2.108,4.389,2.313c2.635,0.305,4.923-0.307,6.661-2.455
		c1.563-1.931,2.422-4.144,2.65-6.597c0.168-1.812-0.252-3.479-1.321-4.999c-2.028-2.886-3.995-5.815-6.004-8.714
		c-0.661-0.954-0.817-1.941-0.512-3.067c1.434-5.293,2.84-10.593,4.243-15.895c0.17-0.645,0.262-1.31,0.394-1.984
		c-0.8-0.104-1.436,0.115-2.074,0.336c-1.793,0.621-3.611,1.181-5.379,1.868c-1.534,0.596-2.816,0.245-3.986-0.776
		c-0.376-0.329-0.726-0.71-1.006-1.123C80.091,76.887,79.644,73.904,79.577,70.552z M41.404,87.978
		c-0.09,0.239-0.164,0.402-0.214,0.573c-0.646,2.176-0.24,2.654,1.327,3.58c0.776,0.458,0.965,1.049,0.883,1.869
		c-0.176,1.756-0.386,3.514-0.451,5.275c-0.059,1.582,0.026,3.171,0.102,4.755c0.157,3.312,0.347,6.62,0.53,9.93
		c0.063,1.151,0.118,2.304,0.228,3.45c0.134,1.389-0.069,1.765-1.265,2.393c-0.664,0.348-1.337,0.725-1.896,1.215
		c-0.878,0.771-1.095,1.794-0.864,2.945c0.384,1.922,2.272,3.698,4.688,3.449c2.299-0.237,4.135-1.357,5.595-3.119
		c1.588-1.915,2.492-4.173,3.251-6.508c0.477-1.464,0.926-2.947,1.542-4.354c0.65-1.486,1.844-2.479,3.442-2.879
		c0.693-0.175,1.42-0.313,2.128-0.297c1.185,0.027,2.366,0.19,3.548,0.298c0.415,0.038,0.829,0.083,1.331,0.133
		c-0.755-1.26-1.953-2.363-3.209-3.021c-2.331-1.221-4.77-1.207-7.25-0.611c-1.999,0.48-3.835,1.395-5.707,2.209
		c-0.28,0.122-0.573,0.214-0.942,0.351c-0.056-0.616-0.055-1.125-0.158-1.611c-0.176-0.828-0.136-1.631-0.002-2.464
		c0.221-1.386,0.332-2.788,0.503-4.182c0.167-1.356,0.356-2.71,0.527-4.067c0.189-1.5,0.414-2.997,0.543-4.501
		c0.315-3.678,1.783-6.705,4.846-8.873c2.176-1.54,4.356-3.076,6.522-4.63c0.509-0.366,1.086-0.667,1.496-1.216
		c-0.246-0.157-0.421-0.28-0.606-0.386c-1.343-0.77-2.764-1.201-4.324-0.899c-1.198,0.231-2.395,0.479-3.579,0.771
		c-1.532,0.378-2.885,0.387-3.867-1.165c-0.486-0.768-1.252-1.318-2.202-1.432c-0.479-0.057-0.976,0.034-1.521,0.061
		c0.543-1.599,1.058-3.163,2.219-4.395c1.758-1.866,3.508-3.741,5.315-5.558c1.083-1.087,2.411-1.703,4.003-1.493
		c0.711,0.093,1.22-0.23,1.692-0.655c-0.447-1.265-0.464-1.229-1.486-1.712c-1.036-0.489-2.049-1.034-3.045-1.601
		c-1.061-0.603-2.094-1.255-3.133-1.896c-0.743-0.458-1.545-0.555-2.391-0.441c-1.823,0.245-2.819,1.683-2.419,3.466
		c0.271,1.209,0.298,2.409-0.248,3.567c-0.455,0.964-1.152,1.739-1.911,2.465c-2.449,2.342-4.062,5.186-5.135,8.377
		c-0.737,2.192-1.171,4.446-1.451,6.726c-0.125,1.018-0.301,2.044-0.092,3.108c0.245,1.246,0.866,2.107,2,2.617
		C40.621,87.737,40.969,87.828,41.404,87.978z M151.543,74.563c-0.604,0.25-1.153,0.518-1.729,0.703
		c-0.723,0.233-1.245,0.672-1.683,1.279c-0.915,1.271-1.851,1.589-3.379,1.186c-1.142-0.302-2.26-0.659-3.448-0.811
		c-1.241-0.16-2.454-0.143-3.645,0.157c-0.819,0.207-1.66,0.471-2.225,1.067c1.317,0.948,2.648,1.87,3.94,2.844
		c1.841,1.389,3.673,2.792,5.471,4.236c1.47,1.181,2.491,2.664,2.865,4.562c0.277,1.406,0.696,2.787,0.945,4.197
		c0.367,2.088,0.701,4.186,0.935,6.292c0.209,1.896,0.303,3.807,0.371,5.714c0.033,0.93-0.101,1.866-0.178,2.798
		c-0.01,0.119-0.138,0.229-0.19,0.311c-2.551-0.682-5.034-1.37-7.532-2.003c-1.293-0.328-2.609-0.52-3.953-0.232
		c-1.945,0.418-3.48,1.501-4.812,2.921c-0.222,0.236-0.551,0.423-0.601,0.899c0.573-0.05,1.072-0.077,1.568-0.138
		c1.355-0.167,2.698-0.421,4.08-0.34c1.903,0.111,3.402,0.912,4.373,2.547c0.508,0.855,0.923,1.785,1.249,2.728
		c0.785,2.269,1.425,4.589,2.569,6.722c1.331,2.48,3.165,4.328,6.005,5.025c2.805,0.689,4.88-0.904,5.591-2.986
		c0.636-1.861,0.057-3.278-1.729-4.063c-0.459-0.201-0.937-0.361-1.401-0.549c-0.556-0.226-0.874-0.623-0.856-1.243
		c0.024-0.83,0.018-1.663,0.092-2.489c0.173-1.935,0.411-3.864,0.576-5.8c0.134-1.579,0.146-3.171,0.309-4.746
		c0.285-2.746,0.05-5.466-0.23-8.192c-0.121-1.182-0.161-2.373-0.298-3.552c-0.083-0.713,0.412-1.203,0.961-1.377
		c1.111-0.353,1.263-0.548,1.288-1.659c0.017-0.722,0.019-1.446-0.004-2.168c-0.012-0.375,0.103-0.625,0.468-0.748
		c0.203-0.068,0.404-0.144,0.602-0.23c1.095-0.479,1.669-1.292,1.692-2.515c0.038-1.987-0.064-3.954-0.398-5.92
		c-0.734-4.33-2.527-8.14-5.442-11.419c-0.743-0.836-1.538-1.625-2.283-2.459c-0.966-1.081-1.308-2.328-0.737-3.698
		c0.252-0.608,0.173-1.203,0.176-1.807c0.003-0.883-0.457-1.51-1.238-1.863c-0.386-0.173-0.827-0.224-1.246-0.32
		c-1.403-0.322-2.676-0.045-3.668,1.011c-1.021,1.087-2.252,1.804-3.646,2.214c-1.19,0.351-1.946,1.122-2.623,2.138
		c1.151,0.48,2.235,0.973,3.44,0.996c0.629,0.012,1.096,0.237,1.517,0.682c1.763,1.861,3.539,3.709,5.312,5.56
		C149.995,71.311,150.991,72.745,151.543,74.563z M88.907,176.913c-0.341-0.944-0.68-1.693-0.88-2.478
		c-0.431-1.683,0.356-2.643,2.077-2.652c1.561-0.009,2.939,0.622,4.316,1.229c1.076,0.474,1.24,1.137,0.598,2.165
		c-0.305,0.487-0.685,0.927-1.017,1.397c-0.85,1.207-1.664,2.441-1.988,3.907c-0.16,0.721-0.257,1.475,0.163,2.171
		c1.23-0.624,2.087-1.612,3.026-2.505c0.889-0.845,1.774-1.694,2.696-2.503c0.858-0.753,1.344-0.785,2.213-0.164
		c0.497,0.354,0.951,0.772,1.396,1.193c1.543,1.461,3.072,2.936,4.729,4.521c0.027-0.782,0.062-1.41,0.068-2.038
		c0.016-1.52-0.678-2.773-1.531-3.953c-0.506-0.699-1.104-1.335-1.586-2.051c-0.52-0.774-0.305-1.576,0.512-1.987
		c1.092-0.55,2.234-0.994,3.459-1.133c0.635-0.072,1.296-0.118,1.92-0.02c0.881,0.14,1.309,0.704,1.261,1.6
		c-0.029,0.527-0.205,1.051-0.354,1.564c-0.133,0.458-0.319,0.9-0.514,1.439c1.273-0.289,2.003-1.024,2.164-2.129
		c0.239-1.634,0.341-3.29,0.447-4.94c0.086-1.315,0.176-2.604,1.301-3.528c0.107-0.088,0.16-0.238,0.248-0.353
		c1.225-1.578,1.996-3.397,2.788-5.208c0.703-1.606,1.414-3.209,2.164-4.794c0.178-0.374,0.479-0.726,0.804-0.985
		c0.471-0.373,0.831-0.249,1.172,0.252c0.343,0.504,0.228,1.044,0.128,1.567c-0.283,1.486-0.452,3.002-1.221,4.449
		c1.082-0.228,1.88-0.662,2.584-1.312c2.027-1.869,2.4-4.264,2.153-6.829c-0.066-0.686-0.466-1.281-1.113-1.642
		c-0.157-0.087-0.315-0.171-0.472-0.261c-0.813-0.463-1.324-1.102-1.232-2.1c0.017-0.179,0.022-0.363-0.002-0.541
		c-0.097-0.713-0.398-1.298-1.063-1.65c-0.609-0.322-1.069-0.284-1.563,0.203c-0.753,0.744-1.312,1.573-1.512,2.67
		c-0.427,2.348-1.295,4.543-2.523,6.595c-1.282,2.142-2.771,4.13-4.455,5.967c-2.914,3.177-6.181,5.958-9.634,8.528
		c-1.168,0.869-1.953,0.866-3.107-0.056c-0.817-0.653-1.615-1.331-2.428-1.99c-3.312-2.687-6.526-5.471-9.163-8.859
		c-2.484-3.191-4.337-6.672-5.116-10.682c-0.122-0.624-0.336-1.273-0.676-1.803c-0.699-1.087-1.567-1.334-2.608-0.12
		c-0.433,0.504-0.684,1.116-0.579,1.797c0.124,0.794-0.256,1.313-0.846,1.743c-0.146,0.106-0.303,0.197-0.439,0.314
		c-1.115,0.958-1.83,2.091-1.768,3.645c0.092,2.313,1.12,4.141,2.845,5.591c0.584,0.49,1.304,0.835,2.189,0.743
		c-0.198-0.382-0.372-0.695-0.527-1.018c-1.199-2.496-1.214-2.729-0.35-5.215c0.018-0.05,0.085-0.083,0.147-0.139
		c0.992,0.635,1.821,1.398,2.227,2.55c0.19,0.54,0.438,1.061,0.637,1.599c0.674,1.823,1.517,3.55,2.593,5.184
		c0.704,1.067,1.254,2.257,1.731,3.449c0.769,1.92,1.032,3.956,1.021,6.019C86.41,175.028,87.104,176.228,88.907,176.913z
		 M70.491,159.675c0.096,0.004,0.191,0.008,0.288,0.013c0.165-0.377,0.254-0.776,0.295-1.199c0.236-2.474,0.458-4.948,0.73-7.417
		c0.098-0.888,0.271-1.775,0.504-2.639c0.485-1.805,1.788-2.986,3.21-4.077c1.109-0.851,2.201-0.955,3.362-0.129
		c0.527,0.375,1.072,0.729,1.631,1.055c0.478,0.279,1.01,0.434,1.548,0.192c0.882-0.396,1.57-1.019,1.943-1.929
		c0.091-0.223,0.117-0.494,0.094-0.736c-0.104-1.136-1.517-2.692-2.658-2.834c-2.141-0.266-4.172,0.005-5.901,1.458
		c-1.711,1.439-3.427,2.871-5.14,4.308c-0.708,0.594-1.414,1.191-2.167,1.826c-0.765-1.387-1.49-2.667-2.184-3.964
		c-3.555-6.642-6.533-13.495-7.606-21.033c-0.191-1.341-0.437-2.682-0.335-4.107c0.717-0.079,1.397-0.12,2.064-0.235
		c0.847-0.146,1.7-0.295,2.519-0.547c0.775-0.238,1.281-0.789,1.305-1.664c0.024-0.863-0.275-1.58-1.087-1.947
		c-0.581-0.264-1.199-0.509-1.824-0.597c-2.793-0.39-5.65,1.328-6.846,4.063c-0.314,0.718-0.534,1.49-0.692,2.259
		c-0.338,1.652-0.619,3.317-0.899,4.98c-0.174,1.034-0.608,1.803-1.692,2.141c-0.73,0.229-1.321,0.729-2.089,1.384
		c1.176,0.229,2.13,0.413,3.208,0.623c-0.403,0.346-0.697,0.607-1.002,0.856c-1.482,1.207-3.009,2.363-4.435,3.633
		c-0.797,0.711-1.473,1.575-2.121,2.432c-0.506,0.67-0.768,1.499-0.702,2.336c0.197,2.493,2.976,4.502,5.497,4.006
		c-0.25-0.318-0.579-0.594-0.719-0.945c-0.558-1.397-1.084-2.812-1.313-4.309c-0.122-0.799,0.196-1.446,0.939-1.771
		c0.514-0.225,1.093-0.372,1.652-0.406c1.185-0.074,1.722,0.353,2.042,1.474c0.049,0.172,0.055,0.356,0.105,0.528
		c0.375,1.277,2.062,1.875,3.033,1.078c0.547-0.449,0.627-0.716,0.203-1.276c-0.41-0.541-0.893-1.032-1.381-1.507
		c-0.698-0.678-0.909-1.271-0.517-2.121c0.416-0.902,1.038-1.675,1.871-2.447c0.412,0.75,0.796,1.395,1.127,2.065
		c0.927,1.883,1.108,3.929,1.214,5.977c0.08,1.55,0.062,3.104,0.082,4.658c0.013,1.026,0.168,2.029,0.372,3.17
		c1.187-1.247,2.002-2.606,3.127-3.759c2.241,2.561,4.383,5.041,6.091,7.859c1.581,2.606,2.73,5.366,3.031,8.435
		C70.295,159.154,70.415,159.412,70.491,159.675z M145.422,128.971c0.756-0.174,1.299-0.246,1.801-0.43
		c0.488-0.178,1.174,0,1.467-0.701c-0.701-0.538-1.426-0.9-2.256-1.034c-0.771-0.125-1.22-0.59-1.349-1.342
		c-0.104-0.602-0.165-1.212-0.223-1.82c-0.172-1.793-0.522-3.548-1.016-5.282c-0.771-2.705-2.632-4.229-5.263-4.854
		c-1.603-0.382-3.08,0.006-4.271,1.222c-0.853,0.872-0.785,1.665,0.177,2.463c1.058,0.879,2.293,1.138,3.626,1.095
		c0.563-0.019,1.135-0.118,1.743,0.1c-0.163,1.533-0.256,3.044-0.496,4.532c-0.607,3.765-1.674,7.409-3.069,10.956
		c-1.712,4.35-3.843,8.499-6.073,12.599c-0.162,0.298-0.349,0.582-0.546,0.909c-0.521-0.424-0.972-0.78-1.413-1.148
		c-1.719-1.432-3.411-2.895-5.155-4.293c-1.934-1.55-4.152-2.271-6.64-2.006c-1.723,0.184-2.909,1.209-2.614,2.996
		c0.318,1.925,1.41,2.796,3.115,2.412c0.439-0.099,0.846-0.374,1.247-0.603c0.405-0.231,0.785-0.506,1.177-0.761
		c0.85-0.553,1.696-0.514,2.528,0.033c1.54,1.014,2.735,2.336,3.512,4.016c0.134,0.29,0.238,0.607,0.283,0.923
		c0.106,0.749,0.173,1.503,0.248,2.256c0.165,1.647,0.31,3.298,0.496,4.943c0.101,0.893,0.253,1.781,0.422,2.663
		c0.045,0.234,0.238,0.44,0.396,0.717c0.121-0.183,0.188-0.238,0.194-0.301c0.313-3.057,1.39-5.848,2.934-8.479
		c1.634-2.785,3.714-5.224,5.882-7.595c0.185-0.202,0.403-0.375,0.619-0.573c0.886,1.25,1.717,2.466,2.938,3.463
		c0.313-1.027,0.342-2.037,0.406-3.03c0.147-2.268-0.082-4.547,0.24-6.813c0.251-1.767,0.71-3.443,1.727-4.932
		c0.154-0.227,0.344-0.428,0.551-0.682c0.438,0.496,0.84,0.912,1.196,1.364c0.913,1.16,0.899,1.823-0.06,2.968
		c-0.439,0.524-0.923,1.013-1.371,1.53c-0.434,0.501-0.431,0.864,0.065,1.307c1.022,0.913,1.868,0.797,2.638-0.05
		c0.303-0.333,0.48-0.788,0.681-1.205c0.153-0.319,0.257-0.664,0.374-1.001c0.145-0.416,0.474-0.649,0.861-0.745
		c0.668-0.165,1.333-0.155,1.989,0.141c1.21,0.547,2.058,1.886,1.395,3.63c-0.416,1.095-1.084,2.094-1.646,3.131
		c-0.107,0.198-0.247,0.379-0.422,0.646c1.644,0.138,2.932-0.436,4.102-1.326c0.943-0.718,1.414-1.696,1.454-2.885
		c0.05-1.507-0.53-2.753-1.652-3.714c-1.094-0.938-2.249-1.803-3.388-2.686C147.849,130.812,146.701,129.947,145.422,128.971z
		 M101.924,138.27c1.361,1.354,1.941,3.161,2.918,4.672c0.458-0.053,0.534-0.291,0.498-0.625c-0.037-0.353-0.088-0.71-0.068-1.063
		c0.102-1.878,0.773-3.563,1.805-5.114c0.717-1.078,1.465-2.137,2.168-3.224c0.703-1.086,1.343-2.202,1.613-3.498
		c0.332-1.596-0.318-3-1.827-3.574c-0.69-0.262-1.459-0.378-2.2-0.428c-1.043-0.071-2.094-0.039-3.141-0.012
		c-0.729,0.019-1.238-0.277-1.588-0.901c-0.264-0.471-0.54-0.934-0.817-1.396c-0.536-0.893-1.036-1.81-1.626-2.664
		c-0.507-0.736-1.009-0.726-1.57-0.054c-0.206,0.247-0.368,0.532-0.54,0.807c-0.573,0.913-1.125,1.84-1.717,2.74
		c-0.636,0.968-1.521,1.466-2.718,1.476c-1.294,0.01-2.589,0.121-3.882,0.204c-1.125,0.071-1.772,0.598-2.117,1.67
		c-0.308,0.955-0.249,1.914-0.057,2.877c0.238,1.198,0.92,2.164,1.612,3.134c0.814,1.142,1.634,2.285,2.354,3.485
		c0.722,1.204,1.228,2.509,1.365,3.934c0.057,0.592,0.182,1.176,0.308,1.969c1.306-1.427,1.93-3.097,3.085-4.455
		c0.372,0.495,0.818,0.909,1.042,1.421c0.71,1.625,1.337,3.287,2.022,4.997c0.098-0.193,0.205-0.364,0.274-0.549
		c0.487-1.308,0.98-2.612,1.444-3.928C100.837,139.397,101.344,138.815,101.924,138.27z M99.1,73.053
		c0.667-0.129,1.369-0.168,1.996-0.406c1.67-0.636,3.141-1.625,4.324-2.963c0.873-0.988,1.273-2.192,0.793-3.498
		c-0.191-0.519-0.556-1.003-0.935-1.417c-0.803-0.878-1.361-1.852-1.458-3.052c-0.063-0.752-0.078-1.507-0.15-2.258
		c-0.09-0.938-0.48-1.319-1.34-1.374c-0.963-0.061-1.422,0.255-1.656,1.165c-0.053,0.207-0.065,0.427-0.076,0.642
		c-0.071,1.401-0.178,2.802-0.191,4.204c-0.01,1.046-0.299,1.981-0.836,2.852c-0.116,0.187-0.318,0.389-0.517,0.44
		c-0.298,0.076-0.4-0.21-0.503-0.451c-0.472-1.101-0.735-2.243-0.778-3.444c-0.046-1.258-0.134-2.515-0.218-3.772
		c-0.044-0.667-0.41-1.155-0.978-1.461c-0.577-0.312-1.037,0.091-1.486,0.363c-0.345,0.209-0.495,0.552-0.604,0.97
		c-0.49,1.895-0.844,3.796-2.047,5.49c-1.177,1.656-0.548,4.151,1.055,5.432c0.728,0.582,1.501,1.12,2.304,1.591
		C96.801,72.691,97.9,73.025,99.1,73.053z M98.944,110.265c0.376-0.543,0.727-1.036,1.064-1.538c1.929-2.858,3.866-5.71,5.772-8.583
		c0.393-0.593,0.727-1.242,0.983-1.905c0.432-1.114,0.005-1.897-1.132-2.235c-0.17-0.05-0.348-0.091-0.525-0.1
		c-1.363-0.069-2.727-0.157-4.092-0.187c-2.415-0.054-4.831-0.054-7.245-0.113c-0.89-0.022-1.544,0.335-1.992,1.057
		c-0.545,0.878-0.676,1.716-0.022,2.694c2.274,3.402,4.466,6.859,6.693,10.293C98.583,109.854,98.758,110.034,98.944,110.265z
		 M97.542,80.82c-0.042-0.017-0.085-0.034-0.127-0.051c-0.898,1.455-1.825,2.893-2.687,4.368c-1.162,1.989-2.173,4.049-2.662,6.326
		c-0.39,1.816,0.486,3.038,2.348,3.193c1.003,0.084,2.012,0.148,3.017,0.14c2.09-0.019,4.18-0.085,6.269-0.146
		c0.555-0.016,1.049-0.223,1.472-0.595c0.901-0.793,1.157-1.808,0.638-3.033c-1.401-3.302-2.837-6.589-4.273-9.875
		c-0.137-0.313-0.372-0.583-0.562-0.873c-0.067,0.024-0.134,0.047-0.201,0.071c0.472,3.243,0.942,6.487,1.414,9.728
		c-1.313,0.183-5.38,0.15-6.21-0.052C96.497,86.959,97.02,83.889,97.542,80.82z M158.479,104.073
		c0.084,0.032,0.168,0.063,0.252,0.095c0.113-0.123,0.244-0.232,0.338-0.369c0.887-1.295,1.423-2.729,1.516-4.294
		c0.064-1.073-0.018-2.151-0.542-3.135c-0.479-0.901-1.722-1.591-3.015-0.572c-0.124,0.098-0.269,0.302-0.247,0.431
		c0.165,0.98,0.192,2.073,1.066,2.719c1.059,0.782,1.257,1.741,0.984,2.936C158.667,102.604,158.593,103.343,158.479,104.073z
		 M37.481,98.69c0.061,1.644,0.804,3.408,1.35,5.22c0.032,0.105,0.272,0.147,0.416,0.219c0.062-0.15,0.194-0.311,0.173-0.449
		c-0.061-0.387-0.189-0.762-0.282-1.144c-0.491-2.031,0.143-3.056,1.36-3.857c0.799-0.526,0.938-1.2,0.899-2.022
		c-0.051-1.075-1.225-1.733-2.189-1.243C37.979,96.038,37.482,97.077,37.481,98.69z"/>
	<path fill-rule="evenodd" clip-rule="evenodd" fill="#E2E2E2" d="M126.813,51.86c-1.579,0.459-3.045,0.917-4.528,1.31
		c-3.63,0.962-5.755-0.866-6.875-3.735c-0.598-1.529-0.376-3.044,0.459-4.458c0.328-0.554,0.68-1.094,1.122-1.804
		c-5.599,0.536-10.72,2.097-15.605,4.61c-0.487-0.692-0.363-1.518-0.513-2.261c-0.311-1.549-0.498-3.123-0.715-4.69
		c-0.104-0.743-0.345-1.379-1.095-1.758c-0.932,1.084-1.301,2.395-1.481,3.746c-0.157,1.175-0.155,2.37-0.245,3.555
		c-0.049,0.643-0.143,1.282-0.228,2.029c-2.526-1.352-5.02-2.57-7.653-3.476c-2.661-0.916-5.391-1.476-8.325-1.72
		c0.253,0.691,0.483,1.302,0.701,1.918c0.275,0.777,0.561,1.552,0.805,2.339c0.512,1.649,0.14,3.077-1.219,4.161
		c-2.417,1.927-5.064,2.232-7.888,0.988c-0.59-0.26-1.16-0.564-1.745-0.839c-0.25-0.118-0.512-0.211-0.907-0.372
		c0,0.649,0.037,1.188-0.01,1.719c-0.056,0.642-0.122,1.295-0.29,1.914c-0.551,2.031-2.032,3.103-3.981,3.52
		c-2.24,0.479-4.505,0.401-6.777,0.104c-3.081-0.404-5.989-1.451-8.958-2.274c-1.137-0.315-2.299-0.652-3.464-0.717
		c-1.017-0.057-2.062,0.216-3.08,0.417c-0.699,0.139-1.372,0.411-2.06,0.612c-0.333,0.098-0.673,0.17-1.039,0.261
		c-0.209-0.635,0.083-1.061,0.364-1.456c0.932-1.309,2.192-2.111,3.824-2.076c2.808,0.061,5.615,0.197,8.421,0.324
		c1.33,0.061,2.659,0.162,3.986,0.266c1.976,0.154,3.952,0.306,5.925,0.499c1.207,0.117,1.989-0.495,2.545-1.435
		c0.585-0.988,0.013-2.046-1.152-2.055c-1.035-0.007-2.075,0.164-3.105,0.313c-0.912,0.132-1.812,0.343-2.753,0.526
		c0.723-2.314,4.104-4.616,6.314-4.35c1.535,0.185,3.085,0.253,4.627,0.378c0.681,0.055,1.361,0.145,2.043,0.173
		c0.17,0.007,0.441-0.116,0.504-0.254c0.144-0.313-0.111-0.423-0.38-0.498c-1.553-0.434-3.105-0.87-4.655-1.315
		c-0.842-0.242-1.679-0.502-2.696-0.808c0.813-0.564,1.58-0.566,2.287-0.688c1.913-0.328,3.834-0.606,5.759-0.859
		c0.614-0.081,1.075-0.354,1.497-0.724c-0.139-1.062-0.801-1.568-1.713-1.878c-2.051-0.698-4.146-1.159-6.31-1.339
		c-0.58-0.048-1.146-0.27-1.847-0.444c1.035-0.701,2.06-0.776,3.053-0.796c2.528-0.053,5.064-0.122,7.587,0.007
		c3.519,0.18,7.025,0.534,10.501,1.168c1.159,0.211,2.362,0.209,3.577-0.011c0.333-0.977,0.057-1.784-0.486-2.552
		c-1.075-1.519-2.489-2.604-4.242-3.195c-1.085-0.366-2.218-0.59-3.324-0.894c-0.403-0.11-0.792-0.268-1.317-0.449
		c1.575-0.977,3.136-1.121,4.69-0.691c2.347,0.649,4.653,1.444,6.977,2.177c0.103,0.033,0.209,0.054,0.31,0.091
		c1.87,0.687,2.447,0.16,3.16-1.044c0.878-1.485,1.703-3.003,2.598-4.478c0.328-0.54,0.791-0.997,1.301-1.626
		c0.43,0.629,0.814,1.094,1.09,1.616c0.903,1.712,1.782,3.438,2.641,5.174c0.484,0.982,1.148,1.398,2.373,0.992
		c2.788-0.924,5.594-1.794,8.392-2.687c0.342-0.109,0.69-0.196,1.023-0.326c0.962-0.374,1.915-0.114,2.864,0.034
		c0.219,0.034,0.571,0.087,0.511,0.427c-0.028,0.156-0.257,0.319-0.431,0.398c-1.599,0.724-3.21,1.421-4.808,2.146
		c-0.653,0.296-1.289,0.632-1.922,0.969c-1.957,1.042-2.271,2.119-1.904,3.971c0.284,0,0.595,0.031,0.898-0.004
		c3.001-0.353,6.002-0.707,9.001-1.078c3.23-0.4,6.474-0.48,9.722-0.392c1.187,0.032,2.373,0.143,3.557,0.245
		c0.296,0.026,0.582,0.159,1.127,0.316c-0.414,0.262-0.587,0.448-0.787,0.486c-2.404,0.451-4.726,1.196-7.051,1.936
		c-0.892,0.283-1.615,0.76-2.295,1.539c0.186,0.158,0.339,0.403,0.526,0.431c1.636,0.248,3.278,0.458,4.918,0.679
		s3.28,0.435,4.917,0.673c0.127,0.019,0.312,0.203,0.318,0.319c0.008,0.111-0.163,0.305-0.29,0.341
		c-1.035,0.292-2.076,0.566-3.12,0.826c-1.81,0.451-3.624,0.885-5.435,1.334c-0.239,0.06-0.465,0.172-0.762,0.284
		c0.494,0.439,1.012,0.273,1.486,0.243c1.981-0.126,3.963-0.202,5.94,0.033c1.247,0.148,2.508,0.251,3.733,0.51
		c1.592,0.336,2.802,1.264,3.646,2.866c-1.151-0.129-2.204-0.279-3.263-0.356c-1.187-0.087-2.377-0.137-3.566-0.145
		c-0.635-0.004-1.151,0.4-1.261,0.839c-0.131,0.533,0.222,1.239,0.845,1.47c0.974,0.36,1.972,0.658,2.967,0.956
		c0.987,0.295,1.991,0.233,3,0.098c2.496-0.334,4.997-0.631,7.49-0.983c1.716-0.243,3.429-0.504,5.166-0.409
		c2.754,0.15,5.117,1.104,6.787,3.423c0.211,0.292,0.448,0.565,0.696,0.875c-0.104,0.339-0.242,0.554-0.67,0.334
		c-0.542-0.278-1.133-0.47-1.653-0.781c-1.797-1.074-3.736-1.322-5.727-0.871c-2.446,0.553-4.853,1.278-7.291,1.869
		c-2.091,0.507-4.184,1.066-6.31,1.354c-2.414,0.327-4.829-0.038-7.122-0.87c-2.431-0.882-2.913-2.729-2.542-4.728
		C126.604,52.89,126.698,52.439,126.813,51.86z"/>
	<path fill-rule="evenodd" clip-rule="evenodd" fill="#E2E2E2" d="M108.681,123.04c-2.562-0.052-4.569-1.234-6.075-3.214
		c-1.571-2.064-2.323-4.458-2.212-7.065c0.062-1.464,0.625-2.778,1.45-3.996c1.837-2.711,3.644-5.442,5.457-8.17
		c0.237-0.358,0.47-0.725,0.656-1.111c0.512-1.057,0.499-2.145,0.181-3.26c-1.422-4.999-2.832-10.001-4.242-15.003
		c-0.098-0.345-0.188-0.697-0.229-1.051c-0.065-0.58,0.15-0.836,0.715-0.815c0.354,0.013,0.71,0.104,1.053,0.203
		c2.133,0.622,4.254,1.286,6.395,1.879c1.806,0.5,2.984,0.03,3.988-1.516c1.307-2.012,2.216-4.185,2.479-6.585
		c0.069-0.635,0.039-1.298-0.064-1.929c-0.112-0.684-0.438-0.81-1.066-0.478c-3.109,1.643-6.313,3.114-9.235,5.1
		c-0.735,0.5-1.48,1.035-2.438,1.068c-0.707,0.025-0.98-0.15-1.199-0.824c-0.428-1.323-0.228-2.085,0.848-2.97
		c3.455-2.843,6.92-5.675,10.383-8.509c0.166-0.136,0.341-0.267,0.523-0.38c1.186-0.73,2.266-0.636,3.212,0.38
		c0.734,0.79,1.418,1.636,2.057,2.507c1.795,2.448,3.22,5.082,4.073,8.021c0.726,2.495,0.09,4.541-1.833,6.2
		c-1.587,1.37-3.357,2.47-5.283,3.311c-0.526,0.229-1.064,0.438-1.569,0.706c-3.717,1.972-4.073,6.051-1.531,8.797
		c0.857,0.926,1.853,1.722,2.728,2.632c0.971,1.011,1.989,2.007,2.786,3.15c1.541,2.21,1.833,4.719,1.28,7.322
		c-0.88,4.142-2.833,7.74-5.673,10.855c-0.97,1.063-2.012,2.065-3.079,3.031C111.942,122.476,110.438,123.104,108.681,123.04z"/>
	<path fill-rule="evenodd" clip-rule="evenodd" fill="#E2E2E2" d="M79.577,70.552c0.067,3.352,0.514,6.335,2.299,8.966
		c0.28,0.413,0.629,0.794,1.006,1.123c1.169,1.021,2.452,1.372,3.986,0.776c1.768-0.687,3.585-1.247,5.379-1.868
		c0.639-0.221,1.274-0.44,2.074-0.336c-0.132,0.674-0.224,1.339-0.394,1.984c-1.403,5.301-2.81,10.602-4.243,15.895
		c-0.305,1.126-0.149,2.113,0.512,3.067c2.01,2.899,3.976,5.829,6.004,8.714c1.069,1.521,1.489,3.188,1.321,4.999
		c-0.228,2.453-1.087,4.666-2.65,6.597c-1.738,2.148-4.026,2.76-6.661,2.455c-1.763-0.204-3.154-1.072-4.389-2.313
		c-2.095-2.104-4.031-4.321-5.485-6.929c-1.219-2.185-2.074-4.512-2.409-6.983c-0.418-3.082,0.294-5.879,2.58-8.125
		c1.236-1.214,2.469-2.439,3.792-3.554c1.304-1.099,1.74-2.502,1.794-4.104c0.024-0.722,0.019-1.445,0.017-2.168
		c-0.003-1.054-0.447-1.886-1.348-2.428c-0.644-0.387-1.319-0.729-2-1.047c-1.79-0.833-3.619-1.59-5.228-2.762
		c-1.149-0.837-2.157-1.805-2.772-3.119c-0.84-1.796-0.647-3.597,0.155-5.312c0.714-1.524,1.571-2.986,2.43-4.436
		c0.788-1.329,1.65-2.614,2.507-3.9c0.258-0.386,0.583-0.738,0.921-1.057c0.812-0.763,1.816-0.939,2.786-0.42
		c0.598,0.32,1.15,0.744,1.677,1.177c3.206,2.632,6.408,5.27,9.59,7.93c0.769,0.643,1.233,1.505,1.27,2.524
		c0.04,1.131-0.897,1.797-1.938,1.37c-0.66-0.271-1.284-0.635-1.906-0.989c-2.78-1.583-5.544-3.195-8.336-4.756
		C81.242,71.146,80.48,70.921,79.577,70.552z"/>
	<path fill-rule="evenodd" clip-rule="evenodd" fill="#E2E2E2" d="M41.404,87.978c-0.435-0.149-0.783-0.241-1.106-0.386
		c-1.134-0.51-1.755-1.371-2-2.617c-0.209-1.064-0.033-2.091,0.092-3.108c0.28-2.279,0.714-4.534,1.451-6.726
		c1.073-3.192,2.686-6.036,5.135-8.377c0.759-0.726,1.456-1.501,1.911-2.465c0.546-1.158,0.519-2.358,0.248-3.567
		c-0.399-1.784,0.596-3.222,2.419-3.466c0.846-0.113,1.648-0.017,2.391,0.441c1.039,0.641,2.072,1.293,3.133,1.896
		c0.996,0.567,2.009,1.111,3.045,1.601c1.022,0.483,1.039,0.447,1.486,1.712c-0.473,0.425-0.981,0.749-1.692,0.655
		c-1.593-0.21-2.921,0.406-4.003,1.493c-1.808,1.817-3.557,3.692-5.315,5.558c-1.161,1.232-1.676,2.796-2.219,4.395
		c0.544-0.027,1.042-0.118,1.521-0.061c0.95,0.114,1.716,0.664,2.202,1.432c0.982,1.551,2.335,1.542,3.867,1.165
		c1.184-0.292,2.38-0.54,3.579-0.771c1.56-0.301,2.98,0.129,4.324,0.899c0.185,0.106,0.36,0.229,0.606,0.386
		c-0.41,0.548-0.987,0.85-1.496,1.216c-2.166,1.555-4.346,3.09-6.522,4.63c-3.063,2.168-4.531,5.195-4.846,8.873
		c-0.129,1.505-0.354,3.002-0.543,4.501c-0.171,1.356-0.36,2.71-0.527,4.067c-0.171,1.394-0.283,2.796-0.503,4.182
		c-0.133,0.833-0.173,1.636,0.002,2.464c0.103,0.486,0.102,0.995,0.158,1.611c0.37-0.137,0.662-0.229,0.942-0.351
		c1.872-0.814,3.708-1.729,5.707-2.209c2.48-0.596,4.919-0.609,7.25,0.611c1.256,0.658,2.454,1.762,3.209,3.021
		c-0.502-0.05-0.917-0.095-1.331-0.133c-1.183-0.107-2.364-0.271-3.548-0.298c-0.708-0.016-1.436,0.122-2.128,0.297
		c-1.598,0.4-2.792,1.393-3.442,2.879c-0.616,1.407-1.065,2.891-1.542,4.354c-0.759,2.335-1.664,4.593-3.251,6.508
		c-1.46,1.762-3.296,2.882-5.595,3.119c-2.416,0.249-4.304-1.527-4.688-3.449c-0.231-1.151-0.014-2.174,0.864-2.945
		c0.559-0.49,1.232-0.867,1.896-1.215c1.196-0.628,1.399-1.004,1.265-2.393c-0.11-1.146-0.165-2.299-0.228-3.45
		c-0.183-3.31-0.373-6.618-0.53-9.93c-0.075-1.584-0.16-3.173-0.102-4.755c0.065-1.762,0.275-3.519,0.451-5.275
		c0.082-0.819-0.107-1.411-0.883-1.869c-1.567-0.926-1.972-1.404-1.327-3.58C41.24,88.38,41.314,88.216,41.404,87.978z"/>
	<path fill-rule="evenodd" clip-rule="evenodd" fill="#E2E2E2" d="M151.543,74.563c-0.552-1.818-1.548-3.252-2.78-4.54
		c-1.772-1.851-3.549-3.699-5.312-5.56c-0.421-0.445-0.888-0.67-1.517-0.682c-1.205-0.023-2.289-0.516-3.44-0.996
		c0.677-1.016,1.433-1.788,2.623-2.138c1.394-0.41,2.625-1.127,3.646-2.214c0.992-1.057,2.265-1.333,3.668-1.011
		c0.419,0.096,0.86,0.147,1.246,0.32c0.781,0.353,1.241,0.98,1.238,1.863c-0.003,0.604,0.076,1.198-0.176,1.807
		c-0.57,1.37-0.229,2.617,0.737,3.698c0.745,0.834,1.54,1.624,2.283,2.459c2.915,3.279,4.708,7.089,5.442,11.419
		c0.334,1.966,0.437,3.933,0.398,5.92c-0.023,1.223-0.598,2.035-1.692,2.515c-0.197,0.086-0.398,0.162-0.602,0.23
		c-0.365,0.123-0.479,0.373-0.468,0.748c0.022,0.722,0.021,1.446,0.004,2.168c-0.025,1.111-0.177,1.306-1.288,1.659
		c-0.549,0.174-1.044,0.664-0.961,1.377c0.137,1.179,0.177,2.37,0.298,3.552c0.28,2.726,0.516,5.446,0.23,8.192
		c-0.163,1.575-0.175,3.167-0.309,4.746c-0.165,1.936-0.403,3.865-0.576,5.8c-0.074,0.826-0.067,1.659-0.092,2.489
		c-0.018,0.62,0.301,1.018,0.856,1.243c0.465,0.188,0.942,0.348,1.401,0.549c1.786,0.785,2.365,2.202,1.729,4.063
		c-0.711,2.082-2.786,3.676-5.591,2.986c-2.84-0.697-4.674-2.545-6.005-5.025c-1.145-2.133-1.784-4.453-2.569-6.722
		c-0.326-0.942-0.741-1.872-1.249-2.728c-0.971-1.635-2.47-2.436-4.373-2.547c-1.382-0.081-2.725,0.173-4.08,0.34
		c-0.496,0.061-0.995,0.088-1.568,0.138c0.05-0.477,0.379-0.663,0.601-0.899c1.331-1.42,2.866-2.503,4.812-2.921
		c1.344-0.287,2.66-0.096,3.953,0.232c2.498,0.633,4.981,1.321,7.532,2.003c0.053-0.082,0.181-0.191,0.19-0.311
		c0.077-0.932,0.211-1.868,0.178-2.798c-0.068-1.907-0.162-3.818-0.371-5.714c-0.233-2.106-0.567-4.204-0.935-6.292
		c-0.249-1.41-0.668-2.791-0.945-4.197c-0.374-1.898-1.396-3.381-2.865-4.562c-1.798-1.444-3.63-2.847-5.471-4.236
		c-1.292-0.974-2.623-1.896-3.94-2.844c0.564-0.596,1.405-0.86,2.225-1.067c1.19-0.3,2.403-0.317,3.645-0.157
		c1.188,0.152,2.307,0.509,3.448,0.811c1.528,0.404,2.464,0.085,3.379-1.186c0.438-0.607,0.96-1.046,1.683-1.279
		C150.39,75.081,150.938,74.812,151.543,74.563z"/>
	<path fill-rule="evenodd" clip-rule="evenodd" fill="#E2E2E2" d="M88.907,176.913c-1.803-0.686-2.498-1.885-2.488-3.583
		c0.011-2.063-0.252-4.099-1.021-6.019c-0.477-1.192-1.028-2.382-1.731-3.449c-1.076-1.634-1.919-3.36-2.593-5.184
		c-0.199-0.538-0.446-1.059-0.637-1.599c-0.406-1.151-1.235-1.915-2.227-2.55c-0.062,0.056-0.129,0.089-0.147,0.139
		c-0.864,2.485-0.849,2.719,0.35,5.215c0.155,0.322,0.329,0.636,0.527,1.018c-0.885,0.092-1.604-0.253-2.189-0.743
		c-1.725-1.45-2.752-3.277-2.845-5.591c-0.062-1.554,0.652-2.687,1.768-3.645c0.136-0.117,0.294-0.208,0.439-0.314
		c0.59-0.431,0.97-0.949,0.846-1.743c-0.105-0.681,0.146-1.293,0.579-1.797c1.041-1.214,1.909-0.967,2.608,0.12
		c0.34,0.529,0.554,1.179,0.676,1.803c0.778,4.01,2.632,7.49,5.116,10.682c2.636,3.389,5.851,6.173,9.163,8.859
		c0.813,0.659,1.61,1.337,2.428,1.99c1.154,0.922,1.939,0.925,3.107,0.056c3.454-2.57,6.72-5.352,9.634-8.528
		c1.685-1.837,3.173-3.825,4.455-5.967c1.229-2.052,2.097-4.247,2.523-6.595c0.2-1.097,0.759-1.926,1.512-2.67
		c0.493-0.487,0.953-0.525,1.563-0.203c0.665,0.353,0.967,0.938,1.063,1.65c0.024,0.178,0.019,0.362,0.002,0.541
		c-0.092,0.998,0.42,1.637,1.232,2.1c0.156,0.09,0.314,0.174,0.472,0.261c0.647,0.36,1.047,0.956,1.113,1.642
		c0.247,2.565-0.126,4.96-2.153,6.829c-0.704,0.649-1.502,1.084-2.584,1.312c0.769-1.447,0.938-2.963,1.221-4.449
		c0.1-0.523,0.215-1.063-0.128-1.567c-0.341-0.501-0.701-0.625-1.172-0.252c-0.325,0.26-0.626,0.611-0.804,0.985
		c-0.75,1.585-1.461,3.188-2.164,4.794c-0.792,1.811-1.563,3.63-2.788,5.208c-0.088,0.114-0.141,0.265-0.248,0.353
		c-1.125,0.925-1.215,2.213-1.301,3.528c-0.106,1.65-0.208,3.307-0.447,4.94c-0.161,1.104-0.891,1.84-2.164,2.129
		c0.194-0.539,0.381-0.981,0.514-1.439c0.148-0.514,0.324-1.037,0.354-1.564c0.048-0.896-0.38-1.46-1.261-1.6
		c-0.624-0.099-1.285-0.053-1.92,0.02c-1.225,0.139-2.367,0.583-3.459,1.133c-0.816,0.411-1.031,1.213-0.512,1.987
		c0.481,0.716,1.08,1.352,1.586,2.051c0.854,1.18,1.547,2.434,1.531,3.953c-0.007,0.628-0.041,1.256-0.068,2.038
		c-1.656-1.586-3.186-3.061-4.729-4.521c-0.445-0.421-0.9-0.839-1.396-1.193c-0.869-0.621-1.355-0.589-2.213,0.164
		c-0.921,0.809-1.807,1.658-2.696,2.503c-0.939,0.893-1.796,1.881-3.026,2.505c-0.42-0.696-0.323-1.45-0.163-2.171
		c0.324-1.466,1.139-2.7,1.988-3.907c0.332-0.471,0.712-0.91,1.017-1.397c0.643-1.028,0.478-1.691-0.598-2.165
		c-1.377-0.607-2.756-1.238-4.316-1.229c-1.721,0.01-2.507,0.97-2.077,2.652C88.228,175.22,88.566,175.969,88.907,176.913z"/>
	<path fill-rule="evenodd" clip-rule="evenodd" fill="#E2E2E2" d="M70.491,159.675c-0.076-0.263-0.196-0.521-0.222-0.788
		c-0.301-3.068-1.451-5.828-3.031-8.435c-1.708-2.818-3.85-5.299-6.091-7.859c-1.125,1.152-1.94,2.512-3.127,3.759
		c-0.204-1.141-0.359-2.144-0.372-3.17c-0.02-1.554-0.001-3.108-0.082-4.658c-0.106-2.048-0.287-4.094-1.214-5.977
		c-0.331-0.671-0.715-1.315-1.127-2.065c-0.833,0.772-1.455,1.545-1.871,2.447c-0.392,0.851-0.181,1.443,0.517,2.121
		c0.488,0.475,0.971,0.966,1.381,1.507c0.424,0.561,0.344,0.827-0.203,1.276c-0.971,0.797-2.658,0.199-3.033-1.078
		c-0.05-0.172-0.056-0.356-0.105-0.528c-0.319-1.121-0.856-1.548-2.042-1.474c-0.559,0.034-1.139,0.182-1.652,0.406
		c-0.743,0.325-1.062,0.973-0.939,1.771c0.229,1.497,0.755,2.911,1.313,4.309c0.14,0.352,0.47,0.627,0.719,0.945
		c-2.521,0.496-5.3-1.513-5.497-4.006c-0.066-0.837,0.195-1.666,0.702-2.336c0.648-0.856,1.324-1.721,2.121-2.432
		c1.426-1.27,2.953-2.426,4.435-3.633c0.305-0.249,0.599-0.511,1.002-0.856c-1.077-0.21-2.032-0.395-3.208-0.623
		c0.768-0.655,1.359-1.155,2.089-1.384c1.084-0.338,1.518-1.106,1.692-2.141c0.28-1.663,0.562-3.328,0.899-4.98
		c0.158-0.769,0.378-1.541,0.692-2.259c1.196-2.735,4.052-4.453,6.846-4.063c0.625,0.088,1.243,0.333,1.824,0.597
		c0.812,0.367,1.111,1.084,1.087,1.947c-0.024,0.875-0.529,1.426-1.305,1.664c-0.819,0.252-1.672,0.401-2.519,0.547
		c-0.667,0.115-1.348,0.156-2.064,0.235c-0.102,1.426,0.144,2.767,0.335,4.107c1.074,7.538,4.051,14.392,7.606,21.033
		c0.694,1.297,1.419,2.577,2.184,3.964c0.753-0.635,1.459-1.232,2.167-1.826c1.713-1.437,3.429-2.868,5.14-4.308
		c1.729-1.453,3.76-1.724,5.901-1.458c1.141,0.142,2.553,1.698,2.658,2.834c0.022,0.242-0.003,0.514-0.094,0.736
		c-0.374,0.91-1.061,1.532-1.943,1.929c-0.538,0.241-1.07,0.087-1.548-0.192c-0.559-0.326-1.104-0.68-1.631-1.055
		c-1.161-0.826-2.252-0.722-3.362,0.129c-1.423,1.091-2.725,2.272-3.21,4.077c-0.232,0.863-0.406,1.751-0.504,2.639
		c-0.273,2.469-0.494,4.943-0.73,7.417c-0.041,0.423-0.13,0.822-0.295,1.199C70.682,159.683,70.586,159.679,70.491,159.675z"/>
	<path fill-rule="evenodd" clip-rule="evenodd" fill="#E2E2E2" d="M145.422,128.971c1.279,0.977,2.427,1.841,3.562,2.722
		c1.139,0.883,2.294,1.748,3.388,2.686c1.122,0.961,1.702,2.207,1.652,3.714c-0.04,1.188-0.511,2.167-1.454,2.885
		c-1.17,0.891-2.458,1.464-4.102,1.326c0.175-0.267,0.314-0.447,0.422-0.646c0.562-1.037,1.229-2.036,1.646-3.131
		c0.663-1.744-0.185-3.083-1.395-3.63c-0.656-0.296-1.321-0.306-1.989-0.141c-0.388,0.096-0.717,0.329-0.861,0.745
		c-0.117,0.337-0.221,0.682-0.374,1.001c-0.2,0.417-0.378,0.872-0.681,1.205c-0.77,0.847-1.615,0.963-2.638,0.05
		c-0.496-0.442-0.499-0.806-0.065-1.307c0.448-0.518,0.932-1.006,1.371-1.53c0.959-1.145,0.973-1.808,0.06-2.968
		c-0.356-0.452-0.758-0.868-1.196-1.364c-0.207,0.254-0.396,0.455-0.551,0.682c-1.017,1.488-1.476,3.165-1.727,4.932
		c-0.322,2.267-0.093,4.546-0.24,6.813c-0.064,0.993-0.093,2.003-0.406,3.03c-1.221-0.997-2.052-2.213-2.938-3.463
		c-0.216,0.198-0.435,0.371-0.619,0.573c-2.168,2.371-4.248,4.81-5.882,7.595c-1.544,2.632-2.62,5.423-2.934,8.479
		c-0.006,0.063-0.073,0.118-0.194,0.301c-0.157-0.276-0.351-0.482-0.396-0.717c-0.169-0.882-0.321-1.771-0.422-2.663
		c-0.187-1.646-0.331-3.296-0.496-4.943c-0.075-0.753-0.142-1.507-0.248-2.256c-0.045-0.315-0.149-0.633-0.283-0.923
		c-0.776-1.68-1.972-3.002-3.512-4.016c-0.832-0.547-1.679-0.586-2.528-0.033c-0.392,0.255-0.771,0.529-1.177,0.761
		c-0.401,0.229-0.808,0.504-1.247,0.603c-1.705,0.384-2.797-0.487-3.115-2.412c-0.295-1.787,0.892-2.813,2.614-2.996
		c2.487-0.266,4.706,0.456,6.64,2.006c1.744,1.398,3.437,2.861,5.155,4.293c0.441,0.368,0.892,0.725,1.413,1.148
		c0.197-0.327,0.384-0.611,0.546-0.909c2.23-4.1,4.361-8.249,6.073-12.599c1.396-3.547,2.462-7.191,3.069-10.956
		c0.24-1.488,0.333-2.999,0.496-4.532c-0.608-0.218-1.18-0.118-1.743-0.1c-1.333,0.043-2.568-0.216-3.626-1.095
		c-0.962-0.798-1.029-1.591-0.177-2.463c1.19-1.216,2.668-1.604,4.271-1.222c2.631,0.626,4.492,2.149,5.263,4.854
		c0.493,1.734,0.844,3.489,1.016,5.282c0.058,0.608,0.119,1.219,0.223,1.82c0.129,0.752,0.577,1.217,1.349,1.342
		c0.83,0.134,1.555,0.496,2.256,1.034c-0.293,0.701-0.979,0.523-1.467,0.701C146.721,128.725,146.178,128.797,145.422,128.971z"/>
	<path fill-rule="evenodd" clip-rule="evenodd" fill="#E2E2E2" d="M101.924,138.27c-0.58,0.546-1.086,1.128-1.359,1.901
		c-0.464,1.315-0.957,2.62-1.444,3.928c-0.069,0.185-0.176,0.355-0.274,0.549c-0.685-1.71-1.312-3.372-2.022-4.997
		c-0.224-0.512-0.67-0.926-1.042-1.421c-1.156,1.358-1.78,3.028-3.085,4.455c-0.126-0.793-0.251-1.377-0.308-1.969
		c-0.137-1.425-0.643-2.729-1.365-3.934c-0.72-1.2-1.54-2.344-2.354-3.485c-0.692-0.97-1.375-1.936-1.612-3.134
		c-0.191-0.963-0.25-1.922,0.057-2.877c0.345-1.072,0.992-1.599,2.117-1.67c1.293-0.083,2.588-0.194,3.882-0.204
		c1.197-0.01,2.082-0.508,2.718-1.476c0.592-0.9,1.144-1.827,1.717-2.74c0.172-0.274,0.334-0.56,0.54-0.807
		c0.561-0.672,1.063-0.683,1.57,0.054c0.59,0.854,1.09,1.771,1.626,2.664c0.277,0.462,0.554,0.925,0.817,1.396
		c0.35,0.624,0.859,0.92,1.588,0.901c1.047-0.027,2.098-0.06,3.141,0.012c0.741,0.05,1.51,0.166,2.2,0.428
		c1.509,0.574,2.159,1.979,1.827,3.574c-0.271,1.296-0.91,2.412-1.613,3.498c-0.703,1.087-1.451,2.146-2.168,3.224
		c-1.031,1.552-1.703,3.236-1.805,5.114c-0.02,0.353,0.031,0.71,0.068,1.063c0.036,0.334-0.04,0.572-0.498,0.625
		C103.865,141.431,103.285,139.624,101.924,138.27z"/>
	<path fill-rule="evenodd" clip-rule="evenodd" fill="#E2E2E2" d="M99.1,73.053c-1.2-0.028-2.299-0.361-3.302-0.948
		c-0.803-0.471-1.576-1.009-2.304-1.591c-1.603-1.281-2.231-3.776-1.055-5.432c1.203-1.693,1.557-3.595,2.047-5.49
		c0.108-0.417,0.258-0.76,0.604-0.97c0.449-0.271,0.909-0.675,1.486-0.363c0.568,0.307,0.933,0.795,0.978,1.461
		c0.084,1.257,0.172,2.514,0.218,3.772c0.043,1.202,0.307,2.343,0.778,3.444c0.103,0.241,0.205,0.526,0.503,0.451
		c0.199-0.051,0.401-0.253,0.517-0.44c0.538-0.871,0.827-1.806,0.836-2.852c0.013-1.402,0.12-2.803,0.191-4.204
		c0.011-0.215,0.023-0.435,0.076-0.642c0.234-0.909,0.693-1.225,1.656-1.165c0.859,0.054,1.25,0.435,1.34,1.374
		c0.072,0.75,0.088,1.506,0.15,2.258c0.097,1.2,0.655,2.173,1.458,3.052c0.379,0.415,0.743,0.898,0.935,1.417
		c0.48,1.306,0.08,2.51-0.793,3.498c-1.184,1.338-2.654,2.327-4.324,2.963C100.469,72.885,99.767,72.923,99.1,73.053z"/>
	<path fill-rule="evenodd" clip-rule="evenodd" fill="#E2E2E2" d="M98.944,110.265c-0.187-0.23-0.361-0.411-0.495-0.617
		c-2.228-3.434-4.419-6.891-6.693-10.293c-0.654-0.979-0.523-1.816,0.022-2.694c0.448-0.722,1.102-1.079,1.992-1.057
		c2.415,0.059,4.831,0.059,7.245,0.113c1.365,0.03,2.729,0.118,4.092,0.187c0.178,0.009,0.355,0.05,0.525,0.1
		c1.137,0.338,1.563,1.122,1.132,2.235c-0.257,0.663-0.591,1.312-0.983,1.905c-1.906,2.873-3.844,5.725-5.772,8.583
		C99.671,109.229,99.321,109.722,98.944,110.265z"/>
	<path fill-rule="evenodd" clip-rule="evenodd" fill="#E2E2E2" d="M97.542,80.82c-0.523,3.069-1.045,6.139-1.566,9.201
		c0.83,0.202,4.897,0.235,6.21,0.052c-0.472-3.241-0.942-6.485-1.414-9.728c0.067-0.024,0.134-0.047,0.201-0.071
		c0.189,0.29,0.425,0.56,0.562,0.873c1.437,3.287,2.872,6.574,4.273,9.875c0.52,1.225,0.264,2.24-0.638,3.033
		c-0.423,0.372-0.917,0.579-1.472,0.595c-2.089,0.06-4.179,0.127-6.269,0.146c-1.005,0.009-2.014-0.056-3.017-0.14
		c-1.861-0.155-2.738-1.376-2.348-3.193c0.489-2.277,1.5-4.337,2.662-6.326c0.862-1.476,1.789-2.914,2.687-4.368
		C97.458,80.786,97.5,80.803,97.542,80.82z"/>
	<path fill-rule="evenodd" clip-rule="evenodd" fill="#E2E2E2" d="M158.479,104.073c0.114-0.73,0.188-1.47,0.353-2.189
		c0.272-1.195,0.074-2.154-0.984-2.936c-0.874-0.646-0.901-1.739-1.066-2.719c-0.021-0.128,0.123-0.333,0.247-0.431
		c1.293-1.02,2.535-0.329,3.015,0.572c0.524,0.984,0.606,2.062,0.542,3.135c-0.093,1.564-0.629,2.999-1.516,4.294
		c-0.094,0.137-0.225,0.246-0.338,0.369C158.646,104.137,158.563,104.105,158.479,104.073z"/>
	<path fill-rule="evenodd" clip-rule="evenodd" fill="#E2E2E2" d="M37.481,98.69c0.001-1.614,0.498-2.652,1.728-3.277
		c0.965-0.49,2.139,0.168,2.189,1.243c0.039,0.823-0.1,1.496-0.899,2.022c-1.217,0.802-1.851,1.826-1.36,3.857
		c0.092,0.382,0.221,0.757,0.282,1.144c0.021,0.139-0.111,0.299-0.173,0.449c-0.144-0.071-0.384-0.113-0.416-0.219
		C38.286,102.099,37.542,100.334,37.481,98.69z"/>
</g>
</svg>
