<?xml version="1.0" encoding="utf-8"?>
<!-- Generator: Adobe Illustrator 16.0.0, SVG Export Plug-In . SVG Version: 6.00 Build 0)  -->
<!DOCTYPE svg PUBLIC "-//W3C//DTD SVG 1.1//EN" "http://www.w3.org/Graphics/SVG/1.1/DTD/svg11.dtd">
<svg version="1.1" id="Layer_1" xmlns="http://www.w3.org/2000/svg" xmlns:xlink="http://www.w3.org/1999/xlink" x="0px" y="0px"
	 width="200px" height="200px" viewBox="0 0 200 200" enable-background="new 0 0 200 200" xml:space="preserve">
<g>
	<path fill-rule="evenodd" clip-rule="evenodd" fill="#FFE5A7" d="M18.199,182.539c0-7.783,0.174-14.621-0.094-21.445
		c-0.093-2.365-0.831-4.959-2.042-6.99c-21.295-35.678-21.404-71.417-0.41-107.186c1.722-2.934,2.688-5.695,2.598-9.075
		c-0.172-6.466-0.051-12.94-0.051-20.226c6.604,0,12.852-0.168,19.083,0.058c4.286,0.154,7.866-0.988,11.638-3.134
		c34.504-19.631,69.003-19.31,103.451,0.403c2.647,1.515,5.955,2.36,9.017,2.558c6.281,0.405,12.605,0.154,18.912,0.195
		c0.341,0.002,0.681,0.211,1.554,0.498c0.167,1.104,0.48,2.45,0.55,3.809c0.101,1.977,0.155,3.974,0.006,5.944
		c-0.722,9.505,1.555,17.848,5.977,26.633c16.773,33.31,15.23,66.484-3.663,98.779c-1.107,1.895-1.794,4.295-1.866,6.488
		c-0.234,7.004-0.087,14.025-0.087,22.027c-4.481,0-8.724,0.25-12.926-0.053c-7.55-0.549-14.02,1.375-20.865,5.035
		c-34.28,18.348-68.458,17.424-102.099-2.27c-2.035-1.191-4.632-1.873-6.998-1.959C32.907,182.375,25.916,182.539,18.199,182.539z
		 M186.18,100.493c0.646-48.075-39.409-86.697-86.1-86.78c-45.507-0.078-86.554,36.193-86.734,85.715
		c-0.181,49.651,38.364,87.229,86.22,87.307C151.143,186.82,186.786,144.723,186.18,100.493z"/>
	<path fill-rule="evenodd" clip-rule="evenodd" fill="#F0BD29" d="M105.364,142.072c-0.268-0.463-0.834-0.982-0.757-1.381
		c1.651-8.539-1.268-16.664-2.221-24.961c-0.195-1.705-0.611-3.385-1.322-5.119c-2.042,10.158-6.967,19.887-4.177,31.092
		c-0.328,0.088-0.852,0.229-1.375,0.371c-7.977-0.016-15.955-0.029-23.932-0.043c-0.107-0.246-0.35-0.676-0.303-0.711
		c4.774-3.473,4.527-8.141,3.297-13.152c-4.923-20.063-9.658-40.171-14.788-60.177c-0.91-3.548-3.374-6.697-5.139-10.064
		c7.941,0,16.258,0,24.94,0c-1.286,17.103,4.422,32.979,7.256,49.318c0.361,0.133,0.723,0.266,1.084,0.398
		c0.804-1.662,1.913-3.248,2.363-5.004c3.437-13.429,6.745-26.894,10.258-41.009c0.569,1.148,1.014,1.764,1.193,2.449
		c3.254,12.421,6.444,24.858,9.743,37.267c0.415,1.563,1.358,2.984,2.058,4.471c0.377-0.064,0.753-0.129,1.128-0.193
		c1.032-5.729,2.101-11.453,3.086-17.189c1.126-6.549,2.172-13.111,3.268-19.666c0.618-3.699,1.053-7.36-2.178-10.811
		c9.395,0,18.231,0,26.505,0c-2.302,4.877-5.591,9.627-6.806,14.859c-3.005,12.934-5.102,26.081-7.477,39.158
		c-1.029,5.666-1.599,11.426-2.846,17.039c-0.899,4.051-0.027,7.561,1.639,11.104c0.265,0.564,0.223,1.271,0.323,1.914
		C121.912,142.045,113.638,142.059,105.364,142.072z"/>
</g>
</svg>
