<?xml version="1.0" encoding="utf-8"?>
<!-- Generator: Adobe Illustrator 16.0.0, SVG Export Plug-In . SVG Version: 6.00 Build 0)  -->
<!DOCTYPE svg PUBLIC "-//W3C//DTD SVG 1.1//EN" "http://www.w3.org/Graphics/SVG/1.1/DTD/svg11.dtd">
<svg version="1.1" id="Layer_1" xmlns="http://www.w3.org/2000/svg" xmlns:xlink="http://www.w3.org/1999/xlink" x="0px" y="0px"
	 width="200px" height="200px" viewBox="0 0 200 200" enable-background="new 0 0 200 200" xml:space="preserve">
<g>
	<path fill-rule="evenodd" clip-rule="evenodd" fill="#8C191C" d="M93.476,178.229c-0.314-0.414-0.468-0.583-0.584-0.774
		c-6.495-10.62-12.287-21.61-17.294-33.01c-0.058-0.133-0.091-0.277-0.158-0.404c-0.192-0.368-0.127-0.54,0.32-0.452
		c0.992,0.197,1.976,0.478,2.977,0.566c1,0.09,2.034,0.097,3.024-0.051c2.833-0.421,4.271-2.136,4.498-5.171
		c0.225-3.013-0.288-5.972-0.965-8.894c-0.966-4.162-2.643-8.031-4.841-11.694c-3.438-5.729-9.936-7.573-15.862-5.51
		c-1.845,0.643-3.534,1.557-5.023,2.808c-0.51,0.428-0.758,0.505-1.235-0.076c-7.26-8.848-13.318-18.457-18.317-28.743
		c-0.056-0.115-0.08-0.247-0.129-0.407c2.12,1.473,4.149,2.98,6.274,4.339c4.577,2.926,9.497,5.092,14.79,6.374
		c0.14,0.034,0.277,0.082,0.416,0.124c0.591,0.18,0.856-0.102,1.007-0.648c0.948-3.424,0.833-6.761-0.707-10.014
		c-1.2-2.536-2.971-4.614-5.022-6.485c-2.547-2.324-5.397-4.225-8.323-6.022c-0.287-0.177-0.57-0.366-0.87-0.517
		c-0.417-0.208-0.425-0.42-0.132-0.773c1.264-1.526,2.503-3.074,3.754-4.61c3.968-4.87,7.934-9.742,11.911-14.604
		c0.409-0.5,0.638-1.031,0.764-1.672c0.909-4.632,1.859-9.256,2.797-13.882c0.076-0.377,0.156-0.755,0.248-1.129
		c0.352-1.423,0.967-1.763,2.286-1.193c1.68,0.726,3.34,1.495,5.008,2.25c1.536,0.694,3.091,1.351,4.594,2.108
		c0.764,0.385,1.268,0.28,1.91-0.275c3.323-2.879,6.609-5.813,10.071-8.521c3.534-2.764,7.161-5.432,10.926-7.868
		c2.957-1.914,2.241-1.825,5.056,0.083c4.694,3.184,8.884,6.997,12.966,10.912c4.327,4.15,8.547,8.412,12.808,12.631
		c0.805,0.796,0.777,0.773,1.83,0.31c2.862-1.26,5.737-2.489,8.61-3.723c0.265-0.114,0.548-0.187,0.826-0.262
		c0.719-0.194,0.811-0.134,0.816,0.674c0.005,0.627-0.066,1.254-0.079,1.882c-0.074,3.677-0.541,7.316-1.096,10.943
		c-0.096,0.626,0.171,1.007,0.437,1.451c3.072,5.128,6.149,10.254,9.214,15.387c0.337,0.563,0.875,1.212,0.801,1.749
		c-0.056,0.397-0.946,0.692-1.479,1.008c-2.372,1.404-4.68,2.903-6.728,4.761c-2.173,1.97-4.02,4.173-4.772,7.103
		c-0.665,2.591-0.353,5.079,0.891,7.431c1.068,2.024,2.621,2.6,4.704,1.607c2.391-1.138,4.709-2.427,7.049-3.67
		c1.873-0.996,3.722-2.037,5.601-3.02c0.449-0.235,0.977-0.323,1.467-0.478c-0.096,0.495-0.117,1.019-0.299,1.48
		c-2.906,7.379-6.653,14.326-10.841,21.045c-0.919,1.475-1.851,2.94-2.794,4.399c-0.641,0.991-0.653,0.98-1.552,0.255
		c-2.701-2.179-5.654-3.838-9.108-4.503c-3.647-0.703-6.969-0.088-9.589,2.671c-1.455,1.531-2.779,3.228-3.922,5.005
		c-1.482,2.306-2.782,4.736-4.05,7.17c-0.76,1.461-1.153,3.061-1.069,4.748c0.099,2.016,1.169,3.27,3.156,3.768
		c2.092,0.525,4.004-0.152,5.927-0.778c0.638-0.208,1.237-0.531,1.861-0.786c0.161-0.065,0.347-0.071,0.521-0.104
		c-0.035,0.165-0.041,0.345-0.11,0.493c-1.933,4.146-3.749,8.352-5.839,12.416c-3.272,6.366-7.256,12.296-11.66,17.94
		c-0.142,0.182-0.313,0.34-0.616,0.663c-0.148-1.239-0.28-2.296-0.401-3.354c-0.711-6.186-1.409-12.373-2.134-18.558
		c-0.42-3.594-0.862-7.186-1.339-10.772c-0.126-0.952,0.071-1.813,0.374-2.686c1.174-3.379,2.745-6.579,4.455-9.706
		c3.308-6.046,6.688-12.052,10.017-18.087c2.191-3.975,4.084-8.069,5.21-12.501c2.726-10.732,0.308-20.228-6.721-28.661
		c-2.379-2.855-5.129-5.245-8.508-6.851c-4.636-2.203-9.457-2.393-14.246-0.813c-7.677,2.535-14.069,6.977-18.709,13.693
		c-2.169,3.139-3.371,6.675-3.881,10.471c-0.738,5.497,0.255,10.759,1.986,15.933c2.251,6.73,5.64,12.901,9.742,18.64
		c3.499,4.894,5.601,10.296,6.864,16.091c1.164,5.338,1.905,10.74,2.076,16.204c0.141,4.492,0.331,8.993,0.193,13.48
		c-0.13,4.24-0.613,8.473-1.03,12.699C94.251,173.516,93.84,175.731,93.476,178.229z"/>
	<path fill-rule="evenodd" clip-rule="evenodd" fill="#8C191C" d="M114.953,79.207c-0.149,0.357-0.268,0.672-0.41,0.976
		c-2.659,5.652-6.234,10.639-10.834,14.877c-1.024,0.943-1.225,0.959-2.315,0.043c-4.997-4.2-9.21-9.064-12.479-14.732
		c-0.37-0.641-0.476-1.189-0.058-1.875c3.531-5.789,7.467-11.26,12.342-16.01c0.139-0.135,0.256-0.338,0.42-0.388
		c0.233-0.071,0.506-0.063,0.751-0.023c0.117,0.019,0.211,0.187,0.313,0.29c4.577,4.613,8.643,9.614,11.657,15.409
		C114.583,78.238,114.755,78.739,114.953,79.207z"/>
</g>
</svg>
