<?xml version="1.0" encoding="utf-8"?>
<!-- Generator: Adobe Illustrator 16.0.0, SVG Export Plug-In . SVG Version: 6.00 Build 0)  -->
<!DOCTYPE svg PUBLIC "-//W3C//DTD SVG 1.1//EN" "http://www.w3.org/Graphics/SVG/1.1/DTD/svg11.dtd">
<svg version="1.1" id="Layer_1" xmlns="http://www.w3.org/2000/svg" xmlns:xlink="http://www.w3.org/1999/xlink" x="0px" y="0px"
	 width="500px" height="200px" viewBox="0 0 500 200" enable-background="new 0 0 500 200" xml:space="preserve">
<g>
	<path fill-rule="evenodd" clip-rule="evenodd" fill="#E8E8E8" d="M257.044,195.943c-0.529-0.646-1.029-1.317-1.595-1.932
		c-7.712-8.381-15.441-16.75-23.137-25.147c-0.346-0.377-0.596-1.005-0.597-1.518c-0.028-25.863-0.027-51.728-0.006-77.59
		c0-0.458,0.153-1.026,0.446-1.351c8.082-8.933,16.19-17.84,24.349-26.812c9.033,9.153,18.042,18.282,27.165,27.528
		c-4.781,2.856-9.485,5.665-14.182,8.47c-3.002-3.016-5.975-5.998-9.117-9.157c-2.108,2.167-4.149,4.242-6.149,6.355
		c-0.192,0.203-0.186,0.643-0.186,0.973c-0.008,21.92-0.01,43.84,0.014,65.76c0,0.441,0.182,1.004,0.481,1.306
		c1.881,1.892,3.817,3.726,5.807,5.646c4.941-3.922,10.014-7.948,15.241-12.101c2.079,5.19,4.125,10.297,6.245,15.594
		c0.308-0.422,0.567-0.728,0.772-1.065c2.431-4.021,3.952-8.275,3.933-13.077c-0.064-16.122-0.032-32.243-0.002-48.365
		c0.002-0.891-0.25-1.345-1.05-1.762c-3.952-2.052-7.863-4.181-11.977-6.383c12.195-7.825,24.821-14.562,37.268-21.759
		c10.799,11.673,21.568,23.313,32.362,34.98c-6.972,6.69-13.87,13.31-20.842,20.001c4.377,2.021,8.611,4.011,12.882,5.916
		c0.796,0.355,1.07,0.732,1.065,1.6c-0.038,6.92,0.007,13.84-0.037,20.76c-0.015,2.359,0.925,4.394,1.823,6.588
		c1.785-2.028,2.681-4.362,3.206-6.801c3.301-15.305,6.559-30.617,9.782-45.938c0.659-3.124,1.174-6.282,1.646-9.44
		c0.399-2.683-0.514-4.94-2.636-6.65c-1.045-0.841-2.152-1.604-3.322-2.47c12.078-6.805,24.096-13.576,36.113-20.347
		c0.085,0.079,0.17,0.158,0.256,0.236c-0.262,1.614-0.494,3.233-0.792,4.841c-0.829,4.467-0.627,8.881,0.468,13.29
		c2.057,8.279,4.03,16.582,6.086,24.862c0.293,1.184,0.857,2.299,1.285,3.449c0.245,0.658,0.602,0.92,1.39,0.821
		c3.941-0.493,7.892-0.905,11.91-1.354c0,2.719,0,5.408,0,8.133c-2.422,0.63-4.847,1.206-7.237,1.894
		c-3.005,0.865-3.053,0.921-2.272,3.864c2.71,10.219,5.744,20.336,9.752,30.136c0.375,0.916,0.841,1.795,1.326,2.818
		c1.243-1.418,1.688-3.055,2.061-4.669c0.327-1.415,0.538-2.893,0.542-4.343c0.035-17.011,0.013-34.021,0.045-51.031
		c0.002-0.987-0.223-1.452-1.214-1.821c-4.201-1.559-8.357-3.242-12.704-4.95c12.793-9.864,26.108-18.732,39.377-27.889
		c3.901,4.073,7.813,8.153,11.892,12.408c0-1.397,0-2.568,0-3.804c0.401-0.02,0.699-0.045,0.998-0.045
		c17.397-0.002,34.794-0.002,52.189,0c0.193,0,0.387,0.022,0.579,0.036c-0.003,7.895-0.005,15.788-0.009,23.684
		c-1.295-0.898-2.556-1.849-3.891-2.679c-1.2-0.745-2.445-1.834-3.735-1.936c-3.439-0.271-6.913-0.093-10.418-0.093
		c-0.011,0.232-0.031,0.498-0.031,0.764c-0.002,17.626-0.002,35.252,0,52.879c0,0.348,0.015,0.696,0.063,1.04
		c0.632,4.499,2.275,8.628,4.82,12.358c1.328,1.946,2.95,3.69,4.402,5.481c-11.954,0-24.046,0-36.212,0
		c0.113-0.175,0.152-0.285,0.229-0.355c5.38-5.008,7.718-11.297,7.726-18.529c0.02-17.433,0.007-34.866,0.007-52.3
		c0-0.457,0-0.914,0-1.495c-2.362,0-4.632,0.019-6.902-0.006c-1.945-0.02-3.763,0.444-5.337,1.568
		c-1.42,1.014-2.73,2.182-4.148,3.331c-3.404-3.148-6.888-6.37-10.406-9.625c-2.07,1.477-4.086,2.955-6.151,4.357
		c-0.595,0.403-0.766,0.833-0.762,1.514c0.024,5.412,0.012,10.824,0.017,16.235c0,0.331,0.042,0.661,0.071,1.069
		c5.869,0,11.652,0,17.45,0c0,6.613,0,13.141,0,19.78c-0.581-0.48-1.042-0.89-1.531-1.261c-1.944-1.48-4.121-2.12-6.583-2.045
		c-3.114,0.094-6.23,0.022-9.411,0.022c0,0.506,0,0.884,0,1.265c0,7.268,0.095,14.536-0.034,21.801
		c-0.079,4.447,1.423,8.215,4.136,11.597c0.829,1.034,1.759,1.99,2.737,3.088c-19.595,0-39.043,0-58.539,0
		c0.738-1.813,1.506-3.563,2.168-5.354c1.277-3.441,2.469-6.967,2.158-10.671c-0.51-6.04-2.639-11.719-4.34-17.889
		c-4.624,3.236-9.153,6.227-13.462,9.508c-1.806,1.373-3.347,3.222-4.646,5.102c-2.926,4.223-2.648,8.734,0.607,12.668
		c1.276,1.542,2.735,2.936,4.136,4.373c0.727,0.746,1.507,1.439,2.457,2.341c-13.975,0-27.58,0.003-41.186-0.018
		c-0.379,0-0.837-0.156-1.125-0.399c-4.402-3.705-6.514-8.648-7.108-14.193c-0.352-3.287-0.087-6.643-0.05-9.966
		c0.007-0.664-0.211-1.044-0.749-1.396c-3.028-1.986-6.036-4.006-9.055-6.007c-0.167-0.111-0.375-0.161-0.635-0.269
		c0,6.908-0.004,13.712,0.01,20.513c0,0.416,0.04,0.877,0.221,1.24c1.051,2.125,2.076,4.27,3.258,6.321
		c0.814,1.414,1.871,2.688,2.924,4.174c-0.579,0-0.951,0-1.325,0c-10.011,0-20.023-0.01-30.034,0.023
		c-0.555,0.002-1.237,0.201-1.64,0.557c-5.867,5.194-11.703,10.425-17.528,15.666c-1.242,1.117-2.415,2.312-3.617,3.471
		C257.509,195.943,257.276,195.943,257.044,195.943z M361.64,136.546c0.132-0.01,0.29,0.023,0.394-0.037
		c2.363-1.369,4.72-2.749,7.081-4.127c1.319-0.771,2.641-1.537,3.962-2.306c-1.979-6.75-3.919-13.364-5.941-20.255
		c-1.446,6.904-2.836,13.488-4.199,20.08c-0.458,2.216-0.848,4.444-1.268,6.666c-0.046,0.033-0.094,0.067-0.143,0.101
		c0.034,0.012,0.067,0.023,0.101,0.035C361.631,136.65,361.635,136.598,361.64,136.546z M315.638,114.224
		c-3.392-3.542-6.674-6.971-10.043-10.49c0,6.739,0,13.269,0,19.952C308.997,120.479,312.275,117.389,315.638,114.224z"/>
	<path fill-rule="evenodd" clip-rule="evenodd" fill="#E8E8E8" d="M498.985,108.491c-0.083-0.056-0.165-0.112-0.247-0.17
		c0.004-7.896,0.006-15.789,0.009-23.684c0.08-0.014,0.158-0.026,0.238-0.038C498.985,92.564,498.985,100.528,498.985,108.491z"/>
	<path fill-rule="evenodd" clip-rule="evenodd" fill="#E8E8E8" d="M121.547,65.434c-1.738,2.258-3.585,4.432-5.181,6.776
		c-3.504,5.148-5.321,10.972-6.387,17.045c-2.097,11.947-4.184,23.895-6.217,35.854c-1.827,10.745-3.608,21.498-5.336,32.259
		c-0.403,2.507-0.714,5.06-0.711,7.59c0.003,3.502,1.208,6.706,3.267,9.672c2.648-1.569,4.547-3.763,6.002-6.397
		c1.495-2.704,2.123-5.676,2.75-8.651c2.216-10.505,4.46-21.003,6.635-31.517c1.24-5.994,2.441-11.999,3.516-18.023
		c0.638-3.575-1.129-6.158-3.975-8.113c-0.532-0.364-1.118-0.65-1.765-1.024c11.424-6.55,22.802-13.073,34.401-19.725
		c-0.205,1.691-0.294,3.177-0.578,4.625c-1.159,5.927-0.615,11.758,0.978,17.511c2.479,8.949,5.043,17.875,7.57,26.805
		c4.041-0.37,7.872-0.721,11.786-1.079c0,2.602,0,5.056,0,7.457c-3.061,0.874-6.106,1.744-9.21,2.632
		c3.222,10.549,4.995,21.311,9.865,31.223c2.496-3.386,3.695-7.064,3.7-11.105c0.021-15.966,0.003-31.932,0.027-47.897
		c0.001-0.736-0.27-1.063-0.896-1.375c-4.058-2.031-8.092-4.108-12.505-6.358c12.083-7.726,23.952-15.313,35.859-22.924
		c11.653,12.021,23.156,23.886,34.752,35.849c-6.799,6.399-13.585,12.789-20.47,19.27c1.077,0.547,2.084,1.072,3.101,1.575
		c3.449,1.71,6.889,3.439,10.363,5.099c0.756,0.361,0.945,0.81,0.941,1.596c-0.03,6.108,0.024,12.217-0.039,18.323
		c-0.022,2.085,0.4,4.044,1.562,5.701c1.742,2.489,3.7,4.827,5.589,7.212c0.202,0.253,0.563,0.382,0.849,0.568
		c-0.068,0.113-0.136,0.229-0.204,0.343c-0.366,0-0.732,0-1.098,0c-6.03,0-12.062,0.021-18.091-0.033
		c-0.658-0.006-1.468-0.285-1.942-0.726c-3.756-3.475-6.67-7.535-7.508-12.688c-0.369-2.262-0.299-4.635-0.115-6.936
		c0.156-1.96-0.501-3.059-2.21-3.988c-2.5-1.356-4.839-3.012-7.251-4.533c-0.342-0.216-0.706-0.4-1.209-0.683
		c0,1.279,0,2.386,0,3.493c0,4.291,0.082,8.582-0.029,12.871c-0.071,2.755,0.715,5.163,2.295,7.346
		c1.398,1.933,2.859,3.818,4.349,5.799c-18.953,0-37.853,0-56.848,0c0.725-1.864,1.417-3.686,2.141-5.495
		c2.531-6.316,2.124-12.651,0.166-19.009c-0.577-1.874-1.072-3.771-1.662-5.863c-3.163,1.929-6.387,3.7-9.391,5.788
		c-2.457,1.709-4.822,3.624-6.923,5.749c-3.868,3.912-3.968,8.413-0.429,12.625c1.807,2.148,3.838,4.108,5.813,6.202
		c-21.357,0-42.702,0-64.136,0c0.249-1.72,0.397-3.474,0.772-5.179c0.768-3.494,0.156-6.913-0.403-10.334
		c-1.349-8.247-2.733-16.488-4.312-24.777c-0.089,0.295-0.196,0.586-0.264,0.884c-1.707,7.538-3.386,15.082-5.119,22.614
		c-1.214,5.275-1.137,10.464,0.801,15.568c0.147,0.39,0.217,0.808,0.337,1.268c-11.952,0-23.812,0-35.908,0
		c0.865-0.84,1.615-1.565,2.363-2.296c1.868-1.822,3.805-3.726,4.066-6.42c0.229-2.383,0.199-4.892-0.287-7.227
		c-1.838-8.849-3.864-17.657-5.902-26.461c-3.042-13.149-6.072-26.301-9.269-39.413c-1.62-6.64-3.509-13.221-5.475-19.769
		c-0.465-1.548-1.606-2.954-2.655-4.249c-1.354-1.67-2.926-3.162-4.572-4.908c11.902,0,23.539,0,35.22,0
		c-0.398,1.655-0.831,3.317-1.193,4.993c-0.779,3.6-0.59,7.224-0.085,10.829c2.437,17.408,6.735,34.433,10.646,51.537
		c0.153,0.669,0.317,1.332,0.692,2.043c5.286-21.978,10.572-43.954,15.858-65.931c0.074,0.003,0.148,0.006,0.222,0.009
		c5.343,21.469,10.688,42.939,16.031,64.409c0.098-0.011,0.195-0.022,0.292-0.032c2.544-14.795,5.107-29.59,7.621-44.392
		c0.761-4.48,1.402-8.982,2.07-13.479c0.481-3.238-0.222-6.138-2.634-8.479c-0.465-0.452-1.013-0.818-1.523-1.224
		c0.076-0.1,0.151-0.199,0.227-0.297C97.274,65.434,109.423,65.434,121.547,65.434z M127.939,140.866
		c3.212-2.491,6.794-4.335,10.528-5.883c0.9-0.373,1.101-0.737,0.829-1.68c-1.898-6.564-3.735-13.147-5.594-19.723
		c-0.096-0.341-0.213-0.674-0.321-1.009c-0.193,0.235-0.195,0.427-0.231,0.613c-1.585,7.996-3.185,15.986-4.749,23.985
		c-0.236,1.211-0.305,2.457-0.452,3.689c-0.035-0.025-0.07-0.049-0.036-0.026C127.888,140.802,127.913,140.833,127.939,140.866z
		 M192.627,105.078c-0.086,0.07-0.172,0.14-0.258,0.21c0,6.635,0,13.27,0,20.057c3.833-3.132,7.528-6.151,10.933-8.935
		C199.708,112.596,196.167,108.837,192.627,105.078z"/>
	<path fill-rule="evenodd" clip-rule="evenodd" fill="#E8E8E8" d="M129.05,34.713c-1.866,3.689-3.63,7.142-5.358,10.61
		c-1.303,2.617-2.573,5.25-3.829,7.889c-0.275,0.578-0.612,0.779-1.284,0.878c-1.726,0.258-2.42-0.551-3.134-2.023
		c-6.077-12.519-12.256-24.987-18.408-37.47c-0.221-0.448-0.48-0.878-0.701-1.326c-1.534-3.109-4.193-4.356-7.498-4.538
		c-0.347-0.019-0.694-0.04-1.04-0.071c-0.069-0.006-0.134-0.063-0.253-0.12c0-0.62,0-1.264,0-1.983c7.529,0,15.046,0,22.649,0
		c0,0.665,0,1.334,0,2.05c-1.114,0.124-2.222,0.221-3.322,0.374c-2.723,0.377-3.197,1.237-2.015,3.701
		c2.242,4.68,4.476,9.363,6.767,14.018c2.599,5.28,5.255,10.533,7.891,15.795c0.255,0.511,0.538,1.006,0.875,1.634
		c0.196-0.297,0.353-0.488,0.461-0.706c1.974-3.955,3.957-7.904,5.891-11.877c0.178-0.366,0.202-0.965,0.025-1.322
		c-2.675-5.42-5.38-10.823-8.111-16.215c-1.239-2.447-2.921-4.456-5.734-5.162c-0.587-0.146-1.21-0.153-1.886-0.233
		c0-0.671,0-1.31,0-2.043c6.11,0,12.229,0,18.423,0c0,0.636,0,1.274,0,1.943c-0.027,0.033-0.068,0.133-0.125,0.143
		c-2.702,0.504-3.452,1.95-2.288,4.468c1.273,2.757,2.564,5.506,3.854,8.254c0.11,0.234,0.268,0.444,0.539,0.888
		c1.385-3.195,2.813-6.155,3.951-9.223c0.852-2.298-0.452-4.001-3.074-4.4c0-0.668,0-1.349,0-2.098c5.768,0,11.546,0,17.415,0
		c0,0.677,0,1.341,0,2.052c-0.858,0.117-1.688,0.257-2.523,0.338c-2.895,0.282-5.132,1.665-6.577,4.155
		c-1.852,3.192-3.585,6.455-5.344,9.699c-0.657,1.211-1.711,2.454-1.729,3.695c-0.019,1.195,1.063,2.409,1.665,3.611
		c2.189,4.371,4.378,8.741,6.57,13.11c0.137,0.272,0.296,0.533,0.534,0.958c0.473-0.896,0.914-1.668,1.298-2.467
		c4.526-9.383,9.043-18.771,13.561-28.158c0.067-0.138,0.122-0.283,0.181-0.424c0.986-2.342,0.623-3.158-1.828-3.714
		c-1.643-0.372-3.324-0.576-5.067-0.868c0-0.592,0-1.231,0-1.963c7.004,0,14.015,0,21.111,0c0,0.646,0,1.313,0,2.029
		c-1.065,0.142-2.134,0.244-3.188,0.43c-2.534,0.447-4.534,1.74-5.793,3.998c-2.191,3.929-4.394,7.855-6.452,11.854
		c-4.839,9.403-9.62,18.835-14.351,28.292c-0.48,0.957-1.099,0.881-1.851,0.873c-0.809-0.011-1.571,0.175-2.073-0.896
		C135.021,47.063,132.078,41.016,129.05,34.713z"/>
	<path fill-rule="evenodd" clip-rule="evenodd" fill="#E8E8E8" d="M360.624,7.97c0-0.625,0-1.229,0-1.926
		c0.255-0.025,0.547-0.078,0.84-0.078c10.049,0.001,20.101-0.12,30.149,0.059c6.498,0.115,12.915,1.079,18.785,4.141
		c5.742,2.996,9.767,7.526,10.792,14.042c1.454,9.23-1.754,16.686-9.461,22.061c-4.726,3.296-10.077,5.073-15.705,6.075
		c-5.183,0.921-10.413,1.195-15.672,1.167c-6.455-0.036-12.911-0.008-19.366-0.008c-0.378,0-0.755,0-1.191,0
		c0-0.732,0-1.368,0-1.967c1.889-0.261,3.751-0.482,5.602-0.781c1.842-0.298,2.812-1.469,3.018-3.29
		c0.092-0.802,0.195-1.61,0.196-2.417c0.014-10.126,0.016-20.253-0.001-30.381c-0.002-1.039-0.1-2.083-0.229-3.114
		c-0.216-1.712-1.232-2.727-3.004-3.032c-0.796-0.137-1.605-0.198-2.408-0.29C362.208,8.142,361.446,8.061,360.624,7.97z
		 M376.718,28.377c-0.012,0-0.023,0-0.036,0c0,5.292-0.03,10.585,0.01,15.878c0.027,3.528,1.554,5.339,4.974,6.037
		c3.998,0.815,7.979,0.413,11.951-0.22c9.248-1.476,17.347-7.877,18.481-18.828c0.752-7.269-1.981-15.383-10.188-19.454
		c-3.857-1.912-7.936-2.977-12.191-3.18c-3.304-0.157-6.634-0.05-9.938,0.168c-2.323,0.154-3.027,1.038-3.047,3.374
		C376.687,17.561,376.718,22.969,376.718,28.377z"/>
	<path fill-rule="evenodd" clip-rule="evenodd" fill="#E8E8E8" d="M280.016,29.615c2.812,1.305,4.061,3.778,4.844,6.481
		c1.426,4.917,4.031,9.141,7.29,12.999c4.562,5.4,10.067,9.65,16.189,13.128c1.275,0.724,1.284,0.708,1.105,2.343
		c-2.427,0.131-4.801-0.219-7.116-0.965c-4.885-1.573-8.915-4.501-12.546-8.033c-5.583-5.431-9.979-11.742-13.578-18.62
		c-1.742-3.326-4.418-5.022-8.17-5.022c-1.229,0-2.458,0-3.799,0c0,2.958-0.011,5.845,0.004,8.731
		c0.011,1.699-0.086,3.417,0.124,5.093c0.373,2.948,1.357,3.771,4.355,4.065c0.993,0.097,1.986,0.193,3.047,0.296
		c0,0.624,0,1.257,0,1.952c-7.463,0-14.904,0-22.396,0c0-0.66,0-1.294,0-1.9c1.442-0.193,2.858-0.321,4.248-0.583
		c2.227-0.419,2.945-1.212,3.226-3.435c0.111-0.879,0.189-1.768,0.191-2.651c0.012-9.471,0.017-18.941-0.002-28.411
		c-0.002-1.309-0.102-2.624-0.233-3.927c-0.17-1.684-0.965-2.524-2.652-2.893c-0.715-0.156-1.439-0.274-2.164-0.362
		c-0.724-0.086-1.454-0.114-2.261-0.173c0-0.665,0-1.294,0-2.014c0.362-0.019,0.733-0.052,1.106-0.052
		c7.306-0.003,14.612-0.045,21.917,0.014c4.14,0.033,8.24,0.379,11.976,2.468c7.082,3.963,7.491,13.724,0.723,18.243
		C283.719,27.539,281.878,28.515,280.016,29.615z M264.234,29.567c2.861-0.13,5.572-0.106,8.245-0.405
		c6.498-0.727,10.224-5.375,9.605-11.894c-0.342-3.597-2.069-6.309-5.463-7.811c-2.965-1.313-6.06-1.618-9.259-1.237
		c-2.568,0.305-3.106,0.829-3.123,3.429c-0.021,3.667-0.006,7.333-0.006,11.001C264.234,24.882,264.234,27.112,264.234,29.567z"/>
	<path fill-rule="evenodd" clip-rule="evenodd" fill="#E8E8E8" d="M208.788,4.315c6.369-0.075,13.023,1.361,18.814,5.458
		c7.632,5.398,10.838,12.972,9.742,22.196c-1.097,9.236-6.434,15.641-14.702,19.292c-11.469,5.064-22.904,4.466-33.759-1.971
		c-5.555-3.294-9.382-8.192-10.66-14.617c-1.884-9.478,1.139-17.36,8.608-23.434C193.009,6.217,200.26,4.255,208.788,4.315z
		 M229.985,30.974c-0.411-2.655-0.62-5.361-1.269-7.957c-1.897-7.583-6.279-13.136-13.824-15.774
		c-4.31-1.505-8.797-1.574-13.247-0.778c-6.637,1.187-11.554,4.781-14.174,11.088c-3.106,7.48-2.456,14.922,0.799,22.187
		c2.581,5.765,6.826,9.854,12.899,11.794c5.568,1.777,11.193,1.668,16.644-0.431c4.776-1.839,8.206-5.209,10.105-10.041
		C229.188,37.83,229.761,34.479,229.985,30.974z"/>
	<path fill-rule="evenodd" clip-rule="evenodd" fill="#E8E8E8" d="M351.157,41.48c0.68,0.155,1.349,0.308,2.18,0.498
		c-0.797,3.395-1.575,6.717-2.363,10.037c-0.131,0.55-0.354,0.897-1.077,0.896c-13.879-0.028-27.757-0.021-41.635-0.024
		c-0.106,0-0.215-0.04-0.368-0.069c0-0.426,0-0.837,0-1.233c1.582-0.274,3.16-0.549,4.738-0.821c1.53-0.264,2.202-1.307,2.393-2.722
		c0.133-0.992,0.23-1.998,0.232-2.997c0.016-10.321,0.017-20.643,0-30.965c-0.002-1.115-0.1-2.237-0.244-3.343
		c-0.177-1.345-0.892-2.27-2.302-2.544c-1.998-0.388-3.992-0.792-6.045-1.199c0-0.324,0-0.693,0-1.134c7.552,0,15.07,0,22.672,0
		c0.025,0.375,0.052,0.742,0.076,1.101c-1.42,0.362-2.776,0.755-4.153,1.049c-1.841,0.395-2.787,1.504-2.915,3.357
		c-0.039,0.576-0.128,1.152-0.129,1.729c-0.008,10.786-0.017,21.571,0,32.357c0.007,4.06,1.198,5.328,5.297,5.423
		c4.674,0.108,9.352,0.084,14.027,0.083c3.287-0.001,5.824-1.351,7.31-4.363C349.661,44.949,350.363,43.25,351.157,41.48z"/>
	<path fill-rule="evenodd" clip-rule="evenodd" fill="#E8E8E8" d="M361.64,136.546c-0.005,0.052-0.009,0.104-0.014,0.157
		c-0.033-0.012-0.066-0.023-0.101-0.035c0.049-0.033,0.097-0.067,0.142-0.101L361.64,136.546z"/>
	<path fill-rule="evenodd" clip-rule="evenodd" fill="#E8E8E8" d="M127.939,140.866c-0.026-0.033-0.051-0.064-0.025-0.032
		c-0.035-0.022,0.001,0.001,0.036,0.026L127.939,140.866z"/>
	<path fill-rule="evenodd" clip-rule="evenodd" fill="#E8E8E8" d="M201.859,24.75c2.093-0.06,4.053,0.387,5.818,1.55
		c3.537,2.329,3.852,6.627,0.695,9.43c-3.304,2.933-10.385,2.898-13.662-0.067c-2.992-2.708-2.532-7.128,0.972-9.344
		C197.571,25.124,199.653,24.694,201.859,24.75z M201.404,25.657c-1.693-0.017-2.96,0.741-3.812,2.178
		c-1.349,2.276-0.922,5.879,0.949,7.742c1.265,1.26,2.819,1.686,4.567,1.249c1.656-0.415,2.618-1.541,3.064-3.137
		c0.462-1.649,0.346-3.292-0.242-4.884C205.197,26.812,203.5,25.663,201.404,25.657z"/>
	<path fill-rule="evenodd" clip-rule="evenodd" fill="#E8E8E8" d="M223.125,25.026c0.11,1.038,0.208,1.955,0.307,2.896
		c-0.942,0.378-1.598,0.428-2.094-0.689c-0.492-1.108-2.61-1.767-3.636-1.261c-0.214,0.105-0.353,0.552-0.362,0.846
		c-0.039,1.271-0.017,2.543-0.017,3.866c0.827,0,1.631,0.082,2.407-0.033c0.39-0.058,0.727-0.473,1.087-0.725
		c0.322-0.226,0.643-0.452,1.15-0.808c0,1.593,0,2.82,0,4.291c-0.411-0.153-0.991-0.22-1.036-0.41
		c-0.255-1.09-1.074-1.065-1.892-1.111c-0.527-0.029-1.053-0.07-1.696-0.113c0,1.354-0.075,2.625,0.045,3.875
		c0.037,0.371,0.574,0.775,0.974,1.001c0.34,0.194,0.812,0.153,1.583,0.271c-0.373,0.314-0.574,0.634-0.78,0.637
		c-2.355,0.035-4.711,0.031-7.066,0.004c-0.174-0.003-0.346-0.26-0.519-0.399c0.186-0.118,0.366-0.326,0.56-0.34
		c1.154-0.084,1.578-0.669,1.551-1.821c-0.06-2.547-0.038-5.096-0.017-7.645c0.008-0.931-0.32-1.445-1.314-1.514
		c-0.306-0.021-0.593-0.338-0.888-0.52c0.054-0.099,0.108-0.2,0.163-0.298C215.445,25.026,219.255,25.026,223.125,25.026z"/>
</g>
</svg>
